<?xml version="1.0" encoding="UTF-8"?>
<svg version="1.1" xmlns="http://www.w3.org/2000/svg" width="1254" height="1254">
<path d="M0 0 C1.66822938 0.87405178 3.34909714 1.72386223 5.03076172 2.57177734 C20.03232504 10.3066658 33.8030124 20.19432858 46.78466797 30.93505859 C47.65816895 31.65411377 47.65816895 31.65411377 48.54931641 32.38769531 C104.23613929 78.45919935 136.8757561 145.30356976 144.5819397 216.63427734 C144.90014457 220.24561288 144.96588986 223.84258531 144.98779297 227.46630859 C144.99480728 228.25158936 145.00182159 229.03687012 145.00904846 229.84594727 C145.02648124 232.37571002 145.03290401 234.90523791 145.03466797 237.43505859 C145.03568008 238.73745483 145.03568008 238.73745483 145.03671265 240.06616211 C144.98540864 281.7346024 135.6136693 324.02166751 115.85302734 360.93847656 C115.12274992 362.30324091 114.40044042 363.67229094 113.68505859 365.04492188 C104.43591794 382.77509469 93.09366132 399.01980743 79.78466797 413.93505859 C79.08599609 414.74330078 78.38732422 415.55154297 77.66748047 416.38427734 C66.99149884 428.57101108 55.56845938 440.01278991 42.5234375 449.64501953 C40.75979182 450.95351487 39.01965206 452.28920311 37.28076172 453.63037109 C-0.6547981 482.5767066 -57.39288561 508.20574623 -106.21533203 504.93505859 C-110.86755011 503.03686584 -113.16111568 501.58407455 -115.21533203 496.93505859 C-116.29840819 493.29901721 -116.35297469 491.40304364 -115.27783203 487.74755859 C-112.56678607 484.05067774 -109.50192312 483.08503166 -105.21533203 481.93505859 C-101.91175243 481.44417925 -98.6104264 481.25291847 -95.27783203 481.06005859 C-47.99762846 477.47322907 -0.98622167 458.14743906 34.78466797 426.93505859 C35.93288637 425.96710541 37.08273851 425.00108814 38.23388672 424.03662109 C48.83035356 415.12422044 58.1710978 405.81163571 66.78466797 394.93505859 C67.67074093 393.8394839 68.55748282 392.74444995 69.44482422 391.64990234 C110.0018082 341.31816093 128.14533872 276.10098075 121.53466797 211.98974609 C114.4214738 150.8282648 83.43495244 88.82626905 34.60107422 50.13427734 C33.67166016 49.40853516 32.74224609 48.68279297 31.78466797 47.93505859 C30.82431641 47.15775391 29.86396484 46.38044922 28.87451172 45.57958984 C-19.78371323 6.88676622 -83.51897647 -11.35469689 -145.27001953 -4.81884766 C-170.57915642 -1.81069046 -194.87170693 4.790286 -218.21533203 14.93505859 C-218.9576709 15.25732422 -219.70000977 15.57958984 -220.46484375 15.91162109 C-236.81771401 23.1064453 -252.00410636 32.11943551 -266.21533203 42.93505859 C-266.81603516 43.38623047 -267.41673828 43.83740234 -268.03564453 44.30224609 C-285.46359592 57.50082016 -301.42034882 73.18925273 -314.21533203 90.93505859 C-315.0431071 92.03526182 -315.87255915 93.13420515 -316.70361328 94.23193359 C-339.81006447 125.14825756 -354.49745017 162.07276394 -361.21533203 199.93505859 C-361.3384375 200.61938965 -361.46154297 201.3037207 -361.58837891 202.00878906 C-366.17026642 228.2597511 -364.13701166 254.63994196 -361.21533203 280.93505859 C-368.14533203 281.26505859 -375.07533203 281.59505859 -382.21533203 281.93505859 C-398.91958589 248.52655088 -383.77170436 187.66769128 -373.15673828 154.63427734 C-361.71250908 120.34851636 -343.09380554 87.28293278 -318.21533203 60.93505859 C-317.16913974 59.70974156 -316.12743031 58.48058224 -315.09033203 57.24755859 C-306.04195316 46.89452975 -296.09053312 37.33933845 -285.21533203 28.93505859 C-284.29365234 28.18482422 -283.37197266 27.43458984 -282.42236328 26.66162109 C-208.07369745 -32.77883878 -103.52427424 -45.38343085 0 0 Z " fill="#000000" transform="translate(880.21533203125,310.06494140625)"/>
<path d="M0 0 C3.18333538 2.60880673 4.82138487 4.09621555 5.63085651 8.19210529 C5.63362189 9.40426307 5.63638727 10.61642084 5.63923645 11.86531067 C5.64759213 12.54336893 5.6559478 13.2214272 5.66455668 13.92003268 C5.68645174 16.18525287 5.6728922 18.44884627 5.65942383 20.71411133 C5.66787823 22.34045643 5.67852289 23.9667914 5.69119263 25.59310913 C5.71935081 30.00397049 5.71686533 34.41434575 5.70889878 38.82526994 C5.70577499 43.43645806 5.73080432 48.04749102 5.75285339 52.65861511 C5.79031649 61.38851232 5.80244273 70.11825374 5.8054778 78.84822339 C5.81016617 88.78776586 5.84308238 98.72715204 5.87837565 108.66662562 C5.95033744 129.11106596 5.98683129 149.55544281 6 170 C6.66537623 170.00146656 7.33075247 170.00293312 8.01629162 170.00444412 C24.20787567 170.04149902 40.39921604 170.10049601 56.59062481 170.18390274 C64.42069021 170.22370881 72.25065488 170.25609328 80.08081055 170.27099609 C86.90574689 170.28400456 93.73046175 170.31094837 100.55527335 170.35461307 C104.16887422 170.37724634 107.78220171 170.39290959 111.39587975 170.39188385 C115.43049335 170.39099977 119.46429952 170.42122749 123.4987793 170.45410156 C125.29520874 170.44655602 125.29520874 170.44655602 127.12792969 170.43885803 C135.22648824 170.5412223 135.22648824 170.5412223 139.21882629 172.90911865 C142.27467869 176.49631778 142.32986284 179.15603503 142.29296875 183.73828125 C141.86344199 187.0542278 140.39075646 188.74987627 138 191 C135.32807868 192.33596066 133.28159457 192.13511432 130.28837585 192.14717102 C129.07279999 192.15432632 127.85722412 192.16148163 126.60481262 192.16885376 C125.25045802 192.17169414 123.89610314 192.17440585 122.54174805 192.17700195 C121.12101067 192.18326572 119.70027494 192.18991244 118.27954102 192.19691467 C114.41375025 192.21433212 110.54797185 192.2248784 106.68215156 192.2331202 C104.26761456 192.23826868 101.85308141 192.24434447 99.43854713 192.25063133 C91.8860225 192.26968531 84.33350766 192.28391612 76.7809636 192.2922433 C68.05907103 192.30201818 59.33743208 192.3283432 50.6156289 192.36874419 C43.87671049 192.39889028 37.13786484 192.41371072 30.3988803 192.41702431 C26.37278201 192.41937649 22.34695461 192.42835836 18.32092857 192.45348549 C14.53287378 192.47674521 10.74526861 192.4810082 6.95716095 192.47072411 C5.5676073 192.47022812 4.17803168 192.47656722 2.78854561 192.49028015 C0.88997096 192.5079674 -1.00879844 192.49851789 -2.90742493 192.48774719 C-3.96949819 192.49013555 -5.03157145 192.4925239 -6.12582874 192.49498463 C-10.39614022 191.75955923 -12.79632664 189.67341886 -15.29620647 186.19793606 C-16.30927729 183.03413191 -16.25543333 180.15330088 -16.26069641 176.83302307 C-16.26452196 176.11034443 -16.26834751 175.3876658 -16.27228898 174.6430878 C-16.28260936 172.22105034 -16.27862871 169.79925037 -16.2746582 167.37719727 C-16.27900521 165.64089742 -16.28418832 163.9045995 -16.29014587 162.16830444 C-16.3035482 157.45139229 -16.30411319 152.73456021 -16.30158257 148.01763272 C-16.30051373 144.08113678 -16.30539401 140.1446571 -16.310188 136.20816463 C-16.32128739 126.92221135 -16.32171812 117.63629851 -16.31567383 108.3503418 C-16.30963227 98.76751245 -16.3219487 89.18482987 -16.3432439 79.60202557 C-16.36085067 71.37687225 -16.36686273 63.15176568 -16.36360615 54.9265942 C-16.36179172 50.01304475 -16.36444545 45.09959999 -16.37832069 40.18606758 C-16.39087942 35.56577429 -16.3889735 30.94571007 -16.37590981 26.32542038 C-16.37354023 24.62949357 -16.37629234 22.93355073 -16.38453293 21.23764229 C-16.39497007 18.92281475 -16.38692473 16.60876015 -16.3742218 14.29396057 C-16.37438954 12.99850595 -16.37455729 11.70305132 -16.37473011 10.36834049 C-15.85799415 5.72355048 -14.33005494 3.14004709 -10.8125 0.125 C-7.08681266 -1.36527494 -3.71205087 -1.46232307 0 0 Z " fill="#000000" transform="translate(763,376)"/>
<path d="M0 0 C70.61692911 -1.37388569 168.13038494 -0.80498022 224.01202393 49.04034424 C233.58971082 58.31610755 237.48576573 68.33711417 240.35968018 81.19268799 C240.8073479 83.11955401 241.25502785 85.04641726 241.70331287 86.97313976 C242.16867229 88.98211246 242.62825409 90.99233433 243.08654785 93.00292969 C244.28347162 98.24314221 245.5288241 103.47159481 246.77000427 108.70149231 C248.18139449 114.64974214 249.57403001 120.60239508 250.96908188 126.55449295 C251.45791928 128.63863759 251.94768741 130.72256157 252.43771362 132.806427 C258.77710073 159.76989303 258.77710073 159.76989303 261.62139893 172.94659424 C261.80690811 173.80260727 261.9924173 174.6586203 262.18354797 175.54057312 C262.99935101 179.31582216 263.80145473 183.09304645 264.57818604 186.87652588 C265.95215522 193.33185091 267.25739333 198.58111135 271.01202393 204.04034424 C271.46706299 204.73901611 271.92210205 205.43768799 272.39093018 206.15753174 C272.78151611 206.73760986 273.17210205 207.31768799 273.57452393 207.91534424 C279.84973681 217.87845147 281.39412622 229.45290264 278.88702393 240.85284424 C273.32385196 261.19159678 256.5809381 274.9124302 239.01202393 285.10284424 C191.48047736 311.882302 134.95329658 320.41390596 81.25750732 324.85144043 C79.73000551 324.97994323 78.20306436 325.1152526 76.67669678 325.2565918 C74.38593896 325.46667041 72.09433792 325.65275005 69.80108643 325.83331299 C69.11968597 325.89972488 68.43828552 325.96613678 67.73623657 326.03456116 C62.5786468 326.3997268 59.44849442 325.49378197 55.01202393 323.04034424 C53.51812744 321.25030518 53.51812744 321.25030518 52.64093018 319.27471924 C52.29860352 318.55244141 51.95627686 317.83016357 51.60357666 317.08599854 C51.09419556 315.94964966 51.09419556 315.94964966 50.57452393 314.79034424 C47.33982702 308.1734466 44.4290048 303.02858733 38.01202393 299.04034424 C37.36491455 298.63815674 36.71780518 298.23596924 36.05108643 297.82159424 C26.29074087 292.42061251 16.05980471 292.10980723 5.30889893 294.68878174 C-3.54241727 297.72272345 -10.75157165 303.91754195 -14.92547607 312.29034424 C-15.62517057 313.86832659 -16.31439956 315.45103767 -16.98797607 317.04034424 C-18.92484287 320.68165382 -20.37943169 322.99036246 -23.98797607 325.04034424 C-26.92669675 325.30558376 -29.61874067 325.39925041 -32.55047607 325.32940674 C-33.39110596 325.31833893 -34.23173584 325.30727112 -35.09783936 325.29586792 C-44.10320521 325.11916257 -53.03441573 324.35448561 -61.98797607 323.41534424 C-62.83982483 323.32831238 -63.69167358 323.24128052 -64.56933594 323.15161133 C-119.83867026 317.45024554 -196.05198246 307.30446204 -233.98016357 261.64190674 C-242.96232013 249.42154781 -246.03563354 237.95913671 -244.98797607 223.04034424 C-243.66901011 215.17847622 -240.03436988 207.87477409 -235.08905029 201.65020752 C-231.97633316 196.96026887 -231.16915949 191.50306291 -229.99188232 186.07940674 C-229.58689262 184.28781883 -229.58689262 184.28781883 -229.17372131 182.46003723 C-228.59178886 179.87861105 -228.01440623 177.29665952 -227.44470215 174.71255493 C-226.54404719 170.62797855 -225.62626891 166.54737493 -224.70526123 162.46734619 C-223.75257205 158.24367741 -222.80082041 154.01981324 -221.8548584 149.79463196 C-218.8685556 136.45877536 -215.79767471 123.14345494 -212.70108032 109.83276367 C-211.88242371 106.31149393 -211.06684549 102.78952342 -210.25189209 99.26739502 C-209.0529617 94.09153116 -207.84388438 88.91816126 -206.62466431 83.74703979 C-206.21420278 82.00208155 -205.80638734 80.25649772 -205.40182495 78.51016235 C-204.88574905 76.2863111 -204.35867769 74.06539289 -203.82781982 71.84503174 C-203.5480127 70.65764404 -203.26820557 69.47025635 -202.97991943 68.24688721 C-197.65041257 51.0187939 -181.1468124 41.12167647 -166.17547607 33.04034424 C-140.48257119 19.61918208 -112.31906772 13.15245841 -83.98797607 8.04034424 C-82.46792969 7.76577393 -82.46792969 7.76577393 -80.91717529 7.48565674 C-61.71848403 4.10143909 -42.4120053 2.44669843 -22.98797607 1.04034424 C-22.01650635 0.96686768 -21.04503662 0.89339111 -20.04412842 0.81768799 C-13.3642559 0.32970818 -6.69529501 0.13587517 0 0 Z M-50.98797607 24.04034424 C-51.7187738 24.12755737 -52.44957153 24.21477051 -53.20251465 24.30462646 C-80.30762921 27.557211 -107.02794486 32.40618751 -132.98797607 41.04034424 C-133.67859131 41.26657471 -134.36920654 41.49280518 -135.08074951 41.72589111 C-152.3459547 47.4726309 -173.01063425 55.7754906 -182.80047607 72.10284424 C-184.66141965 76.76951812 -184.40324654 81.27712214 -182.98797607 86.04034424 C-173.0336086 105.31369402 -147.19253935 113.84251019 -128.05047607 120.10284424 C-112.05313271 125.18964531 -95.82867199 128.46704088 -79.30047607 131.29034424 C-78.3452002 131.45373291 -77.38992432 131.61712158 -76.40570068 131.78546143 C-69.61994386 132.89367765 -62.84528705 133.55628107 -55.98797607 134.04034424 C-56.02970947 133.34457275 -56.07144287 132.64880127 -56.11444092 131.9319458 C-56.36481149 126.95818098 -56.31510427 122.81777312 -53.52703857 118.57550049 C-48.1544681 113.21656598 -40.32858426 110.92117973 -32.92547607 110.79034424 C-25.16207283 110.86319119 -18.18076239 112.26534485 -11.98797607 117.04034424 C-11.32797607 117.04034424 -10.66797607 117.04034424 -9.98797607 117.04034424 C-9.67860107 117.82409424 -9.36922607 118.60784424 -9.05047607 119.41534424 C-8.05922569 121.96364552 -8.05922569 121.96364552 -6.98797607 124.04034424 C-6.89212773 125.47525032 -6.85814214 126.91474862 -6.86297607 128.35284424 C-6.86039795 129.11210205 -6.85781982 129.87135986 -6.85516357 130.65362549 C-6.99652783 133.19402434 -7.46772212 135.55299302 -7.98797607 138.04034424 C-0.0859648 138.06567635 7.81603602 138.08320358 15.71807861 138.09527588 C18.40689244 138.0997437 21.09568274 138.10670543 23.78448486 138.11578369 C27.64679643 138.12789795 31.50907185 138.13358369 35.37139893 138.13800049 C36.57568542 138.14316177 37.77997192 138.14832306 39.02075195 138.15364075 C40.14161194 138.15371628 41.26247192 138.15379181 42.41729736 138.15386963 C43.4032489 138.15609024 44.38920044 138.15831085 45.4050293 138.16059875 C47.76616732 138.05168502 49.75535629 137.71434415 52.01202393 137.04034424 C52.15897705 136.0619458 52.15897705 136.0619458 52.30889893 135.06378174 C53.35018797 128.9776268 54.35530814 123.76708046 59.59405518 119.86065674 C67.64503294 115.21651378 77.77778764 114.00470869 86.72686768 116.27471924 C92.79646248 118.30829288 98.91603151 120.83928584 101.91436768 126.84893799 C102.6611898 128.55940157 103.3420273 130.298353 104.01202393 132.04034424 C137.29952944 130.0446087 183.16094336 120.12507301 209.01202393 97.04034424 C209.01202393 96.38034424 209.01202393 95.72034424 209.01202393 95.04034424 C210.49702393 94.54534424 210.49702393 94.54534424 212.01202393 94.04034424 C213.42896193 92.28657496 213.42896193 92.28657496 214.63702393 90.16534424 C215.06241455 89.46667236 215.48780518 88.76800049 215.92608643 88.04815674 C218.14425375 83.9469409 218.38970319 80.64803124 218.01202393 76.04034424 C212.93699097 61.75302319 200.02326385 55.11076297 187.12530518 48.94659424 C149.32088897 31.28870456 106.30106717 25.07013568 65.01202393 22.04034424 C63.90890869 21.95349365 62.80579346 21.86664307 61.66925049 21.77716064 C47.2166968 20.7711531 32.74346135 20.79462279 18.26202393 20.79034424 C17.57577816 20.78990238 16.88953239 20.78946053 16.1824913 20.78900528 C-6.32671092 20.78142174 -28.62259279 21.32064114 -50.98797607 24.04034424 Z M-190.98797607 109.04034424 C-193.45663967 116.03108424 -195.25578131 123.03296473 -196.87860107 130.26300049 C-197.14394653 131.42993942 -197.40929199 132.59687836 -197.68267822 133.79917908 C-198.24702684 136.2844257 -198.80931306 138.77014143 -199.36968994 141.25628662 C-200.24399778 145.12952075 -201.12731612 149.00061206 -202.01239014 152.87139893 C-204.48349979 163.71164411 -206.94415006 174.54671821 -209.08172607 185.45831299 C-209.37419299 186.91855339 -209.6668272 188.3787603 -209.95965576 189.83892822 C-210.46393486 192.36013359 -210.92707259 194.87750263 -211.36785889 197.41168213 C-212.96005025 205.43966019 -215.99211262 210.62367489 -220.93817139 216.9788208 C-224.51650124 222.32330107 -225.53574404 227.68623581 -224.98797607 234.04034424 C-222.33538968 247.15858968 -212.20944645 255.42369616 -201.62078857 262.65753174 C-156.49307085 290.76738958 -99.10323815 300.22422833 -46.84686279 303.80548096 C-44.08088654 304.03271146 -41.36049618 304.40529469 -38.61297607 304.79034424 C-36.18467924 304.89514843 -36.18467924 304.89514843 -33.98797607 304.04034424 C-31.82142859 301.54539376 -30.34173543 298.95113736 -28.74578857 296.05987549 C-22.02817327 284.5205052 -9.41123654 277.18744797 3.20343018 273.70440674 C19.19382433 270.91633801 34.90798189 272.27386099 48.57452393 281.54034424 C50.06673359 282.69028139 51.547715 283.85508287 53.01202393 285.04034424 C54.58983643 286.18503174 54.58983643 286.18503174 56.19952393 287.35284424 C61.19242333 292.123837 64.98314846 297.85108064 68.01202393 304.04034424 C78.46505761 304.30079159 88.52754439 303.54202738 98.88702393 302.29034424 C99.64970581 302.20042206 100.4123877 302.11049988 101.19818115 302.01785278 C184.62656902 292.31570994 184.62656902 292.31570994 252.81671143 247.75518799 C257.82748905 240.57467173 260.28453799 233.85704885 259.01202393 225.04034424 C257.23652739 220.11737658 254.76845041 216.00882836 251.55181885 211.89044189 C248.81439886 208.05825286 247.74638573 204.48590968 246.79327393 199.91925049 C246.52358292 198.72921417 246.52358292 198.72921417 246.2484436 197.51513672 C245.65477069 194.88078628 245.08365957 192.24205604 244.51202393 189.60284424 C244.09597562 187.74006472 243.67812521 185.87768692 243.25860596 184.01568604 C242.34253131 179.94515765 241.43388046 175.87305707 240.52862549 171.80010986 C238.02166581 160.57168512 235.38850057 149.37197066 232.77593994 138.16775513 C231.34787509 132.0390095 229.92618751 125.90878612 228.50421143 119.77862549 C228.01839719 117.68527645 227.53256007 115.59193271 227.04669189 113.49859619 C226.70180073 112.01251263 226.35691062 110.52642883 226.01202393 109.04034424 C222.82218101 110.56919156 220.44201361 112.2836224 217.76202393 114.60284424 C180.47403491 144.58476864 123.53292928 151.35507474 77.57452393 155.72784424 C76.32058838 155.84732422 75.06665283 155.9668042 73.77471924 156.08990479 C55.86922798 157.6960027 37.98448075 158.24833021 20.01202393 158.22784424 C19.01923431 158.22723999 18.0264447 158.22663574 17.00357056 158.22601318 C-49.20165583 158.11776892 -134.63684701 155.49525615 -187.49578857 111.09503174 C-189.57824372 108.93432239 -189.57824372 108.93432239 -190.98797607 109.04034424 Z M-44.98797607 124.04034424 C-47.16709801 126.70810193 -47.16709801 126.70810193 -46.98797607 128.97784424 C-45.39691313 132.25941156 -43.29589064 133.7559525 -39.98797607 135.04034424 C-32.31681475 136.51480122 -25.97463121 136.66305431 -18.98797607 133.04034424 C-16.38487932 130.86807095 -16.38487932 130.86807095 -15.80047607 127.60284424 C-17.28746447 124.3940798 -19.13842295 123.18917348 -22.33563232 121.76690674 C-30.03799859 119.65698019 -38.12743337 119.81464764 -44.98797607 124.04034424 Z M64.21905518 129.33331299 C62.71143429 131.06242089 62.71143429 131.06242089 63.32452393 133.72784424 C63.66483643 134.87253174 63.66483643 134.87253174 64.01202393 136.04034424 C73.57672737 136.3306725 82.58385196 135.50086327 92.01202393 134.04034424 C92.01202393 132.72034424 92.01202393 131.40034424 92.01202393 130.04034424 C83.66008971 123.3967602 72.98060679 123.01506989 64.21905518 129.33331299 Z " fill="#000000" transform="translate(470.98797607421875,614.9596557617188)"/>
<path d="M0 0 C3.95830484 3.46351674 5.53830367 5.87714961 6.875 10.9375 C7.05530851 16.25660112 5.99919677 20.22596388 2.5546875 24.359375 C-4.99174392 31.44951057 -13.36779995 32.1471728 -23.40625 31.90625 C-31.45952916 31.27599337 -37.58001592 28.76564678 -43 22.625 C-45.93533017 17.96185006 -45.59595424 12.9498898 -45 7.625 C-42.44125046 1.61750109 -37.7611536 -0.84734155 -32 -3.375 C-21.60181817 -7.20486468 -9.30277059 -6.22147316 0 0 Z M-32 8.625 C-32.9590625 9.305625 -32.9590625 9.305625 -33.9375 10 C-35.19815877 11.64338852 -35.19815877 11.64338852 -35.1875 14.0625 C-33.5896706 17.51044765 -31.72281704 18.34097117 -28.30859375 19.83203125 C-21.0346331 22.33053212 -14.94532779 21.99369192 -8 18.625 C-5.32380887 16.9561998 -5.32380887 16.9561998 -4 14.625 C-3.51637807 12.03600117 -3.51637807 12.03600117 -5 9.625 C-12.64484794 4.18539666 -24.06840129 2.98939039 -32 8.625 Z " fill="#000000" transform="translate(519,710.375)"/>
</svg>
