<?xml version="1.0" encoding="UTF-8"?>
<svg version="1.1" xmlns="http://www.w3.org/2000/svg" width="1254" height="1254">
<path d="M0 0 C1.03519398 0.00040031 1.03519398 0.00040031 2.09130096 0.00080872 C26.00472195 0.01234292 49.82983098 0.45737467 73.6875 2.1875 C74.57451599 2.25066406 75.46153198 2.31382812 76.37542725 2.37890625 C157.39422399 8.1882108 267.19171566 16.69338676 328.6875 76.1875 C329.36941406 76.78433594 330.05132813 77.38117188 330.75390625 77.99609375 C335.10639785 81.95677593 338.34050731 86.3478747 341.4375 91.3125 C341.80238525 91.8792041 342.16727051 92.4459082 342.54321289 93.02978516 C349.80058882 105.21792233 351.55920621 121.12204647 354.57171631 134.79418945 C355.99177809 141.23491036 357.42753944 147.67213539 358.86328125 154.109375 C359.01540573 154.79197388 359.16753021 155.47457275 359.32426453 156.17785645 C361.77586718 167.1742173 364.27019092 178.16038317 366.79296875 189.140625 C366.96687763 189.89757786 367.14078651 190.65453072 367.31996536 191.43442154 C369.10243749 199.18959802 370.89014102 206.94356108 372.68193626 214.69658852 C373.58442211 218.60220758 374.48586588 222.50806648 375.38671875 226.4140625 C375.56503613 227.1870657 375.7433535 227.96006889 375.92707443 228.75649643 C378.46400687 239.76355517 380.94232628 250.78249281 383.37797546 261.81238556 C384.38810732 266.38056686 385.40588861 270.94705266 386.42310715 275.51366043 C387.37695812 279.80154723 388.31689825 284.09217313 389.24620152 288.38544273 C389.68334899 290.392975 390.12775884 292.39873653 390.57536316 294.40396118 C391.11410323 296.81806227 391.64167231 299.23470102 392.15473938 301.65438843 C394.54064806 312.18775445 399.09151788 321.20565642 405.1875 330.0625 C411.23321252 339.15340358 416.29171621 349.24804451 417.6875 360.1875 C417.831875 361.29480469 417.97625 362.40210938 418.125 363.54296875 C420.14650364 383.86329182 412.92816226 402.22362526 400.29882812 417.91259766 C373.68041038 449.3616984 332.73726819 467.09797158 294.6875 480.1875 C293.67816406 480.5376416 292.66882813 480.8877832 291.62890625 481.24853516 C220.84245521 505.56103009 144.16407425 515.63439664 69.6875 519.1875 C68.80336426 519.2380957 67.91922852 519.28869141 67.00830078 519.34082031 C64.73455403 519.46561826 62.46349548 519.55489085 60.1875 519.625 C59.0428125 519.66496094 57.898125 519.70492187 56.71875 519.74609375 C52.466139 518.96242961 50.77063193 517.19411624 47.6875 514.1875 C45.74244659 510.94574432 45.60072155 508.06554726 45.375 504.375 C44.82382393 498.20182796 42.69407774 493.85290579 38.03515625 489.72265625 C21.60190187 478.29233767 -4.74572421 478.32072978 -23.79296875 481.43359375 C-34.22183749 483.66752457 -45.32136464 486.45361667 -51.95703125 495.40625 C-54.15905601 499.92452559 -54.15887034 504.64003264 -54.58984375 509.59375 C-55.39598369 513.60266212 -56.42638852 515.33752945 -59.3125 518.1875 C-69.55818318 524.75051509 -91.65201405 519.38662904 -103.125 518.5 C-104.29199432 518.4103598 -105.45898865 518.3207196 -106.66134644 518.22836304 C-156.98479216 514.3239467 -207.32631792 507.63783528 -256.3125 495.1875 C-257.48538574 494.89053223 -258.65827148 494.59356445 -259.86669922 494.28759766 C-287.70458937 487.13640671 -315.30327874 478.51319733 -341.3125 466.1875 C-342.05725586 465.8359082 -342.80201172 465.48431641 -343.56933594 465.12207031 C-348.20574769 462.91274506 -352.77793482 460.59858977 -357.3125 458.1875 C-357.98893555 457.8280127 -358.66537109 457.46852539 -359.36230469 457.09814453 C-368.15809861 452.38099586 -376.42863327 447.34524063 -384.3125 441.1875 C-385.16328125 440.52878906 -386.0140625 439.87007812 -386.890625 439.19140625 C-389.39297843 437.22253001 -391.85699755 435.2143911 -394.3125 433.1875 C-395.05113281 432.59710937 -395.78976562 432.00671875 -396.55078125 431.3984375 C-413.15615291 417.53604908 -424.78641532 397.73654886 -427.3125 376.1875 C-428.56094423 356.52450336 -420.62215219 339.60819019 -409.640625 323.77734375 C-406.46643639 319.00787994 -404.54527338 314.23599099 -403.0546875 308.7265625 C-402.84446457 307.95827621 -402.63424164 307.18998993 -402.41764832 306.39842224 C-399.41590976 295.14666801 -397.00931021 283.74735821 -394.52597046 272.37265015 C-393.13577516 266.0052432 -391.72870827 259.64155351 -390.32216072 253.27774239 C-390.00853818 251.85870174 -389.69506533 250.43962801 -389.38174248 249.02052116 C-386.82770744 237.45467327 -384.20673595 225.90611611 -381.5 214.375 C-380.71966717 211.04956927 -379.93956145 207.72408579 -379.16015625 204.3984375 C-378.95192734 203.51003174 -378.74369843 202.62162598 -378.52915955 201.70629883 C-376.34501331 192.36514908 -374.20184809 183.01465811 -372.05859375 173.6640625 C-371.67634646 171.99691249 -371.29409853 170.32976263 -370.91184998 168.66261292 C-369.18970463 161.1503304 -367.46881207 153.63776395 -365.75066853 146.12456512 C-365.02969505 142.97338608 -364.30742366 139.82250542 -363.58487129 136.67168808 C-363.2491344 135.20628939 -362.91395786 133.74076217 -362.57942009 132.27508926 C-361.6602786 128.2485383 -360.73190964 124.2243653 -359.78638458 120.20392227 C-359.45980144 118.81428109 -359.13529355 117.42415112 -358.81249237 116.03362656 C-358.30912862 113.87601142 -357.7944204 111.72138635 -357.27685547 109.56713867 C-356.97649384 108.30189865 -356.6761322 107.03665863 -356.3666687 105.733078 C-349.5812771 82.91117561 -327.26696159 67.35911814 -307.39404297 56.43969727 C-305.37138086 55.34695876 -303.34238449 54.26674851 -301.3125 53.1875 C-300.70277344 52.85540527 -300.09304688 52.52331055 -299.46484375 52.18115234 C-237.00847221 18.27192903 -159.15966895 9.21180611 -89.3125 3.1875 C-87.34289307 3.01758545 -87.34289307 3.01758545 -85.33349609 2.84423828 C-56.93612138 0.4699762 -28.48361603 -0.02496251 0 0 Z M-73.3125 25.1875 C-74.24821838 25.25202362 -75.18393677 25.31654724 -76.14801025 25.38302612 C-80.8945456 25.71158326 -85.63504976 26.08537896 -90.375 26.5 C-91.06432617 26.55997162 -91.75365234 26.61994324 -92.46386719 26.68173218 C-166.48149305 33.18867395 -257.50577057 42.28716387 -317.3125 90.1875 C-318.16457031 90.83847656 -319.01664063 91.48945313 -319.89453125 92.16015625 C-328.210306 99.1325102 -335.55159484 109.79259549 -336.55078125 120.81640625 C-336.93831701 136.13426701 -329.79018553 147.95644167 -319.54370117 158.86254883 C-286.77288535 192.95410282 -236.25831943 208.76454414 -191.3125 219.1875 C-190.17619141 219.45868652 -189.03988281 219.72987305 -187.86914062 220.00927734 C-171.65726886 223.8567065 -155.40792665 226.97807524 -138.9375 229.5 C-138.13618652 229.62310547 -137.33487305 229.74621094 -136.50927734 229.87304688 C-125.1394968 231.60460432 -113.75053147 232.99231673 -102.3125 234.1875 C-101.13007765 231.82265529 -101.33169665 230.67347623 -101.5 228.0625 C-101.54105574 222.96337695 -100.29575177 219.31888021 -97.3125 215.1875 C-89.72160081 208.18051613 -77.77104457 206.42361999 -67.8046875 206.734375 C-58.50395365 207.94118163 -47.249588 212.143106 -41.3125 219.75 C-39.59201268 225.66417517 -39.35314185 232.30942555 -41.3125 238.1875 C-28.77771428 239.3246711 -16.26839218 239.34075292 -3.69042969 239.31787109 C-0.21544974 239.31254286 3.25939913 239.31782731 6.734375 239.32421875 C20.4148094 239.3278655 34.03040702 238.9897834 47.6875 238.1875 C47.52741455 237.41188721 47.3673291 236.63627441 47.20239258 235.8371582 C45.88950986 229.0810102 45.91568939 222.91425837 49.44921875 216.8671875 C54.0627056 210.6091454 62.43502245 208.75409877 69.6875 207.1875 C79.72240241 205.9667362 87.65467507 207.80392319 96.6875 212.1875 C97.50734375 212.58324219 98.3271875 212.97898437 99.171875 213.38671875 C102.83813692 215.4004867 104.47342593 216.8215024 106.625 220.5 C107.76471108 224.45546785 108.21790724 228.10500441 108.6875 232.1875 C156.06270044 226.6159877 203.46868589 216.4022219 247.6875 198.1875 C248.4609375 197.86958496 249.234375 197.55166992 250.03125 197.22412109 C279.95434344 184.77090801 311.9028358 167.00718955 325.6875 136.1875 C329.28330328 125.73719671 327.90919449 116.26010628 323.6875 106.1875 C321.35937088 102.19867381 318.68491366 98.69522603 315.6875 95.1875 C315.03007813 94.41792969 314.37265625 93.64835937 313.6953125 92.85546875 C262.90139391 38.13220929 155.78536848 32.24477963 85.6875 26.1875 C84.66148682 26.09855469 84.66148682 26.09855469 83.61474609 26.0078125 C56.37399537 23.66217589 29.15885254 22.99841429 1.83203125 23.00219727 C-1.25006012 23.00227819 -4.33200176 22.9953653 -7.4140625 22.98168945 C-29.45814324 22.88556683 -51.32383659 23.61952713 -73.3125 25.1875 Z M-346.3125 162.1875 C-348.45913007 171.47898272 -350.60481244 180.77068415 -352.75 190.0625 C-352.91419559 190.77367981 -353.07839119 191.48485962 -353.24756241 192.21759033 C-357.49239254 210.60378478 -361.72983782 228.99165681 -365.953125 247.3828125 C-366.1439673 248.21383358 -366.33480961 249.04485466 -366.53143501 249.9010582 C-368.22160459 257.26116743 -369.91144797 264.62135143 -371.599823 271.98187256 C-373.56763769 280.56059321 -375.53741956 289.13885147 -377.51312256 297.71575928 C-378.01043116 299.87559823 -378.50702213 302.03560271 -379.00250244 304.19586182 C-379.55728171 306.61304727 -380.11567275 309.0293575 -380.67578125 311.4453125 C-381.09210815 313.24959717 -381.09210815 313.24959717 -381.5168457 315.09033203 C-383.88072426 324.29197774 -388.17947918 331.676102 -393.3125 339.5625 C-401.57699251 352.35188998 -406.0075545 363.82007191 -404.3125 379.1875 C-401.3579043 392.69174034 -392.76580503 404.61437277 -382.390625 413.4140625 C-381.08576882 414.52760518 -379.80074904 415.66528519 -378.546875 416.8359375 C-334.88319755 457.27229966 -264.05464812 471.54355027 -207.3125 482.1875 C-206.62681946 482.3174939 -205.94113892 482.44748779 -205.23468018 482.5814209 C-163.03809688 490.56641464 -120.14272892 494.54705986 -77.3125 497.1875 C-76.84634277 496.15761963 -76.38018555 495.12773926 -75.89990234 494.06665039 C-75.27469062 492.70185895 -74.64918688 491.33720126 -74.0234375 489.97265625 C-73.71784912 489.29545532 -73.41226074 488.61825439 -73.09741211 487.92053223 C-66.83101029 474.31573515 -55.04126591 467.29086324 -41.3125 462.1875 C-31.90349175 459.43162588 -22.12053105 457.50838864 -12.3125 457.1875 C-11.18972656 457.14753906 -10.06695313 457.10757812 -8.91015625 457.06640625 C12.7343572 456.68030265 39.82005232 459.61865932 56.23828125 475.43359375 C61.49203044 481.79190477 64.94489549 488.47185961 67.6875 496.1875 C128.4920974 492.98014199 188.60257397 484.89301286 247.6875 470.1875 C248.72551758 469.93000977 249.76353516 469.67251953 250.83300781 469.40722656 C288.42115746 459.95508407 329.44513069 446.73553749 360.6875 423.1875 C361.3067334 422.72263184 361.9259668 422.25776367 362.56396484 421.77880859 C374.4715869 412.74769892 385.37421051 403.06233394 391.6875 389.1875 C392.07808594 388.35992188 392.46867188 387.53234375 392.87109375 386.6796875 C397.33332653 376.08767475 396.84444906 365.32099013 393.15234375 354.546875 C389.90977742 347.11058955 385.4407584 340.31121438 380.9453125 333.578125 C377.89509711 328.868466 375.87300973 324.18353159 374.2434082 318.82446289 C374.02733823 318.12183099 373.81126825 317.41919909 373.5886507 316.69527531 C371.42081482 309.51594153 369.68981039 302.24796935 368.04296875 294.93359375 C367.71299912 293.49008362 367.38248689 292.04669743 367.05148315 290.60342407 C366.16826498 286.74499293 365.29295375 282.88480805 364.41908646 279.02425003 C363.68604192 275.79175435 362.94756321 272.56051089 362.20893383 269.32928753 C358.31211631 252.28190297 354.46421379 235.22368986 350.65034294 218.15756798 C350.09161585 215.65821349 349.53220018 213.15901415 348.97254944 210.65986633 C348.60774356 209.0304902 348.24295156 207.40111095 347.87817383 205.77172852 C347.70025834 204.97710866 347.52234285 204.1824888 347.33903599 203.36378956 C346.28450245 198.6503619 345.23671958 193.93549298 344.19397354 189.21944427 C343.54716453 186.29939288 342.89536302 183.38047162 342.2423439 180.46180344 C341.94082062 179.10870612 341.64153208 177.75510862 341.3446312 176.40098953 C340.94001188 174.55650172 340.52699233 172.71386257 340.11352539 170.87133789 C339.88500381 169.83989151 339.65648224 168.80844513 339.42103577 167.7457428 C338.76790863 164.97891206 338.76790863 164.97891206 336.6875 162.1875 C335.93726563 163.09371094 335.18703125 163.99992188 334.4140625 164.93359375 C320.48109245 181.59447337 304.4467293 193.47712779 285.6875 204.1875 C283.9859375 205.17169922 283.9859375 205.17169922 282.25 206.17578125 C205.37151334 249.53312215 103.60209925 260.28800181 16.80316162 261.16534424 C14.53358207 261.18911187 12.26413041 261.21922863 9.99462891 261.24951172 C-74.20801808 262.29592686 -160.13078532 254.77395078 -333.50390625 176.015625 C-337.19985765 172.29397157 -340.45006402 168.35262022 -343.66796875 164.20703125 C-344.21066406 163.54058594 -344.75335938 162.87414062 -345.3125 162.1875 C-345.6425 162.1875 -345.9725 162.1875 -346.3125 162.1875 Z M-81.5625 217.9375 C-83.05523438 218.42476562 -83.05523438 218.42476562 -84.578125 218.921875 C-87.55015497 220.2975003 -89.25056976 221.65606922 -91.3125 224.1875 C-91.96050683 227.2297413 -91.96050683 227.2297413 -90.3125 230.1875 C-83.58728299 234.79415048 -76.42644829 236.83146415 -68.3125 236.1875 C-62.00164552 234.56997687 -56.02665063 232.90165063 -51.3125 228.1875 C-51.26099693 225.79993936 -51.26099693 225.79993936 -52.3125 223.1875 C-54.71052006 221.62409978 -56.78486502 220.50211925 -59.375 219.375 C-60.01888672 219.06369141 -60.66277344 218.75238281 -61.32617188 218.43164062 C-68.27311606 215.28023524 -74.29133206 215.46301876 -81.5625 217.9375 Z M56.6875 224.1875 C56.18614801 226.55971956 56.18614801 226.55971956 56.6875 229.1875 C60.8196302 233.44116345 65.34051657 234.96096737 71.16796875 235.5234375 C80.0730867 235.61727436 89.13597855 235.42219228 95.98828125 229.046875 C96.54902344 228.43328125 97.10976563 227.8196875 97.6875 227.1875 C95.3958713 222.31363751 92.8425746 220.91176381 87.9375 218.875 C86.74640625 218.36324219 85.5553125 217.85148438 84.328125 217.32421875 C74.89944879 214.38028658 63.75144136 217.12355864 56.6875 224.1875 Z " fill="#000000" transform="translate(631.3125,368.8125)"/>
<path d="M0 0 C3.8111791 4.26956834 5.78114999 7.63641987 6.3125 13.375 C5.82466492 19.03388695 4.18467379 23.19385378 0.0625 27.125 C-8.39228808 33.84917047 -19.33284222 36.88490751 -30 36 C-38.94413854 34.48747591 -47.86166246 31.92272088 -54 24.875 C-57.8710358 19.31038603 -57.58773511 13.56730102 -57 7 C-55.55202306 1.88135541 -52.11863249 -1.3100103 -47.60546875 -3.8671875 C-30.70246381 -11.21632008 -15.6707735 -9.97231041 0 0 Z M-46 9 C-46.66685938 11.45672892 -46.66685938 11.45672892 -46 14 C-40.66117674 19.67249972 -34.05279881 21.18403598 -26.5625 21.4375 C-18.22416922 21.2345974 -12.18676222 18.58804329 -6 13 C-6.01464773 11.10714097 -6.01464773 11.10714097 -7 9 C-9.1410884 7.51631621 -11.05565424 6.37648742 -13.375 5.25 C-14.00768799 4.94215576 -14.64037598 4.63431152 -15.29223633 4.31713867 C-24.71297078 0.02268874 -38.91866726 0.19372723 -46 9 Z " fill="#000000" transform="translate(663,565)"/>
</svg>
