<?xml version="1.0" encoding="UTF-8"?>
<svg version="1.1" xmlns="http://www.w3.org/2000/svg" width="1254" height="1254">
<path d="M0 0 C1.30377846 0.00040031 1.30377846 0.00040031 2.63389587 0.00080872 C28.53008362 0.01079763 54.35975447 0.10722745 80.1875 2.1875 C80.996427 2.25066406 81.805354 2.31382812 82.63879395 2.37890625 C148.84397314 7.55976707 216.45585394 17.75884959 278.1875 43.1875 C278.9609375 43.50541504 279.734375 43.82333008 280.53125 44.15087891 C309.11387969 56.04622585 340.67233882 73.32544812 353.91293335 102.86198425 C356.32162826 109.1465931 357.561696 115.71817509 358.92578125 122.2890625 C359.26518848 123.87509775 359.60598964 125.46083525 359.94807434 127.04629517 C360.66887644 130.39166118 361.38395753 133.73817653 362.09527588 137.08557129 C363.69348219 144.58139184 365.36805452 152.06018379 367.03776169 159.54033279 C368.00770843 163.88958465 368.97215762 168.24005638 369.9375 172.59033203 C371.60833271 180.11526847 373.28199658 187.63957211 374.95703125 195.16357422 C375.85032916 199.17674251 376.74353695 203.18993086 377.63671875 207.203125 C377.9728525 208.71319563 377.9728525 208.71319563 378.31577682 210.25377274 C381.16836008 223.0714031 384.00704334 235.89199999 386.82828617 248.71656609 C388.74577257 257.43249511 390.66999534 266.14691872 392.59885311 274.86033821 C393.75574587 280.08851084 394.90870642 285.3174855 396.05258179 290.54852295 C397.12607607 295.45754749 398.20942168 300.36429457 399.30019188 305.26950836 C399.69863498 307.06976207 400.09342892 308.87082802 400.48424721 310.67275238 C401.02069356 313.14366457 401.57027667 315.61130948 402.12304688 318.07861328 C402.27365664 318.78763479 402.42426641 319.4966563 402.57944012 320.22716331 C404.20674259 327.35937472 407.18509373 333.4067319 412 338.9375 C424.32311501 353.98635978 430.63122473 371.64490723 429.1875 391.1875 C426.6726643 406.91723667 420.08618379 421.48593512 409.1875 433.1875 C408.65157227 433.76967285 408.11564453 434.3518457 407.56347656 434.95166016 C346.18353401 500.99568163 236.25915539 518.62165472 77.3125 536.41015625 C66.81197791 536.68442811 66.81197791 536.68442811 62.1875 533.1875 C58.7816097 529.62983206 57.47015805 526.54693816 56.25 521.8125 C53.6397734 512.90761155 50.37117598 508.56393952 42.6640625 503.44921875 C35.2289972 499.66132271 27.9622653 499.86625325 19.765625 499.8515625 C18.46985535 499.8449057 17.17408569 499.8382489 15.83905029 499.83139038 C13.10230172 499.81945971 10.36567896 499.81570505 7.62890625 499.81689453 C4.15138069 499.8170972 0.67467714 499.78983195 -2.80265427 499.75535011 C-6.15490394 499.72752957 -9.5070118 499.7289265 -12.859375 499.7265625 C-14.09306824 499.71219147 -15.32676147 499.69782043 -16.59783936 499.68301392 C-26.48456964 499.73466493 -35.92484174 501.37428075 -43.3203125 508.43359375 C-48.02555064 513.96409617 -50.16337782 520.05387817 -52.0703125 526.953125 C-53.30282863 530.66364724 -55.25468473 533.16939321 -58.51220703 535.29833984 C-69.67374532 539.61274469 -87.25796616 535.56136192 -98.9375 534.5625 C-99.97284882 534.4751358 -101.00819763 534.38777161 -102.07492065 534.29776001 C-189.59151698 526.83379847 -286.69452686 511.85958366 -402.71484375 433.94921875 C-416.46104745 417.63275769 -424.31085225 398.70731278 -422.8125 377.1875 C-420.64754923 363.41179417 -415.55150486 350.46197061 -406.32250977 339.90893555 C-397.89772376 330.01658086 -395.79053863 319.36949238 -393.34976196 306.87283325 C-391.9410283 299.68506986 -390.37080543 292.53644396 -388.78125 285.38671875 C-388.50673508 284.15157532 -388.23222015 282.91643188 -387.9493866 281.64385986 C-387.38031443 279.08473161 -386.81103129 276.52565026 -386.24154663 273.96661377 C-384.80213018 267.48150912 -383.37998196 260.99264204 -381.95703125 254.50390625 C-379.50522106 243.33302656 -377.04459568 232.16418998 -374.5625 221 C-374.4073996 220.30193237 -374.25229919 219.60386475 -374.09249878 218.88464355 C-372.30274486 210.83256087 -370.49813702 202.78393194 -368.6796875 194.73828125 C-367.93213948 191.42972186 -367.18473762 188.12112951 -366.4375 184.8125 C-366.25334534 183.9973291 -366.06919067 183.1821582 -365.87945557 182.34228516 C-362.22064349 166.13206475 -358.68241038 149.89627234 -355.17431641 133.65283203 C-354.22484905 129.25748753 -353.27038014 124.86326737 -352.31036377 120.47021484 C-351.99341398 119.01699405 -351.67808975 117.56341706 -351.3649292 116.109375 C-350.9783599 114.31772569 -350.58325705 112.52792351 -350.1875 110.73828125 C-349.98125 109.79509033 -349.775 108.85189941 -349.5625 107.88012695 C-346.75096761 97.78624976 -340.72256093 89.86005041 -333.8125 82.1875 C-333.20921875 81.50171875 -332.6059375 80.8159375 -331.984375 80.109375 C-275.27904006 19.45932111 -158.70831097 9.42071142 -82.125 3 C-81.12050812 2.91523407 -80.11601624 2.83046814 -79.08108521 2.74313354 C-72.32799757 2.17856162 -65.57280852 1.65791761 -58.8125 1.1875 C-58.00485199 1.13095245 -57.19720398 1.07440491 -56.36508179 1.0161438 C-37.61033706 -0.23267916 -18.78670781 -0.01289153 0 0 Z M-70.8125 26.1875 C-72.45539678 26.31779498 -74.0983007 26.44799981 -75.74121094 26.578125 C-144.95721726 32.14931064 -219.27749778 42.09522622 -281.8125 74.1875 C-282.58980469 74.58565918 -283.36710937 74.98381836 -284.16796875 75.39404297 C-301.6787552 84.5046943 -320.26732033 96.551961 -326.8125 116.1875 C-328.04492129 127.12165633 -325.89711315 135.35530875 -319.375 144.125 C-310.81372984 154.22412795 -300.27506125 161.69519151 -288.8125 168.1875 C-287.76707031 168.80882812 -286.72164062 169.43015625 -285.64453125 170.0703125 C-206.35610328 215.14336592 -97.82716336 221.35680267 151.1875 211.1875 C152.23916351 211.02344666 152.23916351 211.02344666 153.31207275 210.8560791 C248.98925619 196.0379425 248.98925619 196.0379425 326.1875 143.1875 C331.77244794 135.21096086 334.87832541 126.99156022 333.1875 117.1875 C331.27660457 109.643907 327.27172277 103.9670011 322.1875 98.1875 C321.68734375 97.60484375 321.1871875 97.0221875 320.671875 96.421875 C304.62058505 79.07351112 279.97787873 69.01742744 258.1875 61.1875 C257.12805176 60.80384277 256.06860352 60.42018555 254.97705078 60.02490234 C207.96901543 43.19964015 158.69156382 34.65582077 109.1875 29.1875 C108.13873688 29.0708197 108.13873688 29.0708197 107.06878662 28.95178223 C97.78538211 27.92532717 88.49223013 27.05907072 79.17987061 26.34179688 C77.21087548 26.18931029 75.24239372 26.03024125 73.27392578 25.87109375 C25.79798587 22.12742002 -23.35499088 22.28695387 -70.8125 26.1875 Z M-336.8125 160.1875 C-337.01500366 161.09472305 -337.21750732 162.00194611 -337.42614746 162.93666077 C-342.23916974 184.49816337 -347.05752554 206.05846768 -351.88224792 227.61735535 C-354.17716638 237.87270252 -356.46944867 248.12862762 -358.75653648 258.38572407 C-360.20092974 264.86236107 -361.64904421 271.33815881 -363.10007668 277.81331158 C-363.93766618 281.55156769 -364.77357761 285.29017831 -365.60498047 289.02981567 C-368.56242692 302.32722341 -371.53596206 315.61392824 -375.08203125 328.76953125 C-375.31654495 329.64580673 -375.55105865 330.52208221 -375.79267883 331.4249115 C-378.56696773 341.42899164 -383.24919358 348.59704278 -389.84765625 356.5 C-397.88018224 367.48683475 -399.92951481 378.96401586 -398.8125 392.1875 C-395.11570997 411.39582119 -378.37436206 426.74521543 -363.03515625 437.40625 C-340.71008162 452.37824575 -316.10642393 463.33564737 -290.8125 472.1875 C-289.30937256 472.71537109 -289.30937256 472.71537109 -287.77587891 473.25390625 C-220.55265334 496.68100045 -143.27072393 511.89169711 -71.8125 511.1875 C-71.44471436 510.36902588 -71.07692871 509.55055176 -70.69799805 508.70727539 C-64.27231803 494.64761716 -54.38168838 485.00356271 -40 479.3125 C-34.09695056 477.14109814 -28.94653341 476.06646308 -22.65209961 476.02636719 C-21.42990219 476.01675964 -20.20770477 476.0071521 -18.94847107 475.99725342 C-17.63387405 475.99300354 -16.31927704 475.98875366 -14.96484375 475.984375 C-14.28935549 475.98154762 -13.61386723 475.97872025 -12.91790962 475.97580719 C-9.33792866 475.96084461 -5.75798763 475.95159867 -2.17797852 475.94726562 C1.48766035 475.9418081 5.15292268 475.91782993 8.81844425 475.88929367 C11.66437274 475.87049553 14.51021399 475.86545251 17.35619926 475.86392975 C19.35445868 475.85949851 21.35267107 475.84093195 23.35084534 475.82196045 C40.3513708 475.86296486 54.3770713 480.67074977 66.7734375 492.53125 C70.29706131 496.40837652 72.83336047 500.52726461 75.1875 505.1875 C75.52523438 505.83460938 75.86296875 506.48171875 76.2109375 507.1484375 C76.89377433 508.48278836 77.54583322 509.83287013 78.1875 511.1875 C87.50687263 511.36564022 96.72031372 510.84746691 106 510.0625 C107.13941544 509.96696838 107.13941544 509.96696838 108.30184937 509.86950684 C143.19024925 506.89662111 177.84589177 501.99866369 212.1875 495.1875 C212.8905426 495.0491272 213.59358521 494.91075439 214.31793213 494.76818848 C273.71638431 483.04867286 356.9603174 464.45689784 395.1875 413.1875 C403.27842852 400.90812824 406.4806679 390.8337162 405.1875 376.1875 C402.82334165 365.50203855 396.29069432 356.47774957 389.8984375 347.8046875 C385.79738271 341.53138451 383.29752333 335.0390782 381.31640625 327.83984375 C381.06250626 326.93193588 380.80860626 326.02402802 380.54701233 325.08860779 C377.34196344 313.40302855 374.74761827 301.57673641 372.125 289.75 C371.54335003 287.1488023 370.9611936 284.54772261 370.37841797 281.94677734 C369.06810918 276.09414819 367.76254677 270.24047436 366.45947266 264.38623047 C364.09156261 253.74925908 361.71294267 243.11468849 359.33411598 232.48015404 C353.94428146 208.38430453 348.56363495 184.28640938 343.1875 160.1875 C342.07351462 161.13621811 340.96040323 162.0859625 339.84765625 163.03613281 C338.91771851 163.82929901 338.91771851 163.82929901 337.96899414 164.63848877 C335.63780412 166.66546121 333.42119973 168.80403038 331.1875 170.9375 C267.94153722 228.27022236 154.60306663 238.02077768 -46.73199463 244.55987549 C-54.09861517 244.19274382 -61.45598324 243.71799214 -68.8125 243.1875 C-70.09114929 243.09628876 -70.09114929 243.09628876 -71.39562988 243.00323486 C-154.05706128 237.02985698 -264.69331713 226.49395833 -328.4609375 167.328125 C-330.264731 165.68613358 -332.08342894 164.10964246 -333.95947266 162.55371094 C-334.90097168 161.77286133 -335.8424707 160.99201172 -336.8125 160.1875 Z " fill="#000000" transform="translate(623.8125,349.8125)"/>
</svg>
