<?xml version="1.0" encoding="UTF-8"?>
<svg version="1.1" xmlns="http://www.w3.org/2000/svg" width="1254" height="1254">
<path d="M0 0 C3.27517791 1.70057315 5.42982346 2.90689582 7.15684319 6.21782207 C8.16445867 9.5426669 8.24582799 12.35140653 8.24050903 15.8273468 C8.24221788 16.50132151 8.24392673 17.17529622 8.24568737 17.86969441 C8.24897305 20.12067705 8.237994 22.37135943 8.22705078 24.62231445 C8.22648647 26.23879489 8.22680362 27.85527584 8.22793579 29.47175598 C8.22850952 33.85566258 8.21675196 38.23945969 8.20278788 42.62334085 C8.19028386 47.20642304 8.18911028 51.78950775 8.18673706 56.37260437 C8.18052133 65.04937405 8.16410924 73.72609331 8.14403808 82.40284079 C8.12168199 92.28184272 8.11068638 102.16084707 8.10064721 112.039868 C8.07974311 132.35994013 8.0445653 152.67996689 8 173 C8.89107956 172.10302902 9.78215912 171.20605804 10.70024109 170.28190613 C11.88171681 169.09566565 13.0632646 167.90949694 14.24487305 166.72338867 C14.83070915 166.13329765 15.41654526 165.54320663 16.02013397 164.93523407 C18.95737718 161.9896074 21.90171288 159.11248284 25.08203125 156.42578125 C28.44060888 153.56927266 31.54836874 150.4981474 34.63671875 147.35546875 C35.12931183 146.85500031 35.62190491 146.35453186 36.12942505 145.83889771 C38.16994635 143.76189051 40.20735872 141.6820281 42.2355957 139.59301758 C43.73753014 138.04869463 45.24881411 136.51403586 46.76171875 134.98046875 C47.64819092 134.07192139 48.53466309 133.16337402 49.44799805 132.22729492 C52.89783229 129.21640448 55.4122186 127.93384244 60 128.125 C63.60393885 129.17614883 65.45054209 130.23201713 68 133 C69.15427201 136.89566804 69.37707027 139.06343666 67.85206604 142.85122681 C65.76632412 146.39728192 63.2735604 149.14079946 60.36694336 152.00537109 C59.52254448 152.85524597 59.52254448 152.85524597 58.66108704 153.72229004 C56.8113078 155.58013055 54.95095763 157.4269572 53.08984375 159.2734375 C51.79803717 160.5647252 50.50674923 161.85653193 49.21595764 163.14883423 C46.51642235 165.84828001 43.81181141 168.54250013 41.10327148 171.23291016 C37.62538303 174.68803262 34.15876201 178.15420504 30.69560909 181.62409019 C28.03408279 184.28894981 25.36760979 186.94881276 22.69949532 189.60707474 C21.41868118 190.88403154 20.1392226 192.16234944 18.86112785 193.44202805 C17.08018561 195.22333934 15.29291539 196.99803838 13.50366211 198.77099609 C12.97322296 199.30391266 12.44278381 199.83682922 11.89627075 200.38589478 C8.22874893 204 8.22874893 204 6 204 C5.67 204.99 5.34 205.98 5 207 C1.53724772 209.53047282 -1.84220023 209.43011722 -6 209 C-10.68571839 206.2698009 -14.36485881 202.92731709 -18.15722656 199.11743164 C-18.74010437 198.53966476 -19.32298218 197.96189789 -19.92352295 197.36662292 C-21.83438596 195.46957619 -23.7378144 193.56527737 -25.640625 191.66015625 C-26.97225423 190.33241692 -28.30410584 189.00490059 -29.63616943 187.67759705 C-32.42004037 184.90117013 -35.20002705 182.12092249 -37.97753906 179.33813477 C-41.53562349 175.77424313 -45.10497346 172.22187604 -48.67752457 168.67249393 C-51.42796028 165.93678985 -54.1714381 163.19419046 -56.91295624 160.44955254 C-58.22631999 159.13670179 -59.54204585 157.82620963 -60.86017609 156.51814461 C-62.70082601 154.68983698 -64.53167319 152.852234 -66.36035156 151.01196289 C-66.90477905 150.47517914 -67.44920654 149.93839539 -68.01013184 149.38534546 C-70.89623763 146.45866454 -72.90500268 143.9928462 -74 140 C-73.92677712 135.82629593 -73.68433429 133.7648442 -70.875 130.625 C-67.36832303 128.64296519 -65.03758575 128 -61 128 C-56.14398668 130.76844034 -52.43734428 134.3089541 -48.5703125 138.26953125 C-47.67927322 139.16837288 -47.67927322 139.16837288 -46.77023315 140.08537292 C-44.88362031 141.98967538 -43.00385789 143.90054832 -41.125 145.8125 C-38.65186059 148.32241353 -36.17516122 150.82874689 -33.6953125 153.33203125 C-33.10679504 153.9275882 -32.51827759 154.52314514 -31.91192627 155.13674927 C-28.18440058 158.88467028 -24.36377219 162.44096692 -20.25341797 165.7722168 C-19.83979004 166.17738525 -19.42616211 166.58255371 -19 167 C-19 167.66 -19 168.32 -19 169 C-18.360625 169.309375 -17.72125 169.61875 -17.0625 169.9375 C-15 171 -15 171 -14 172 C-13.99945523 171.1490894 -13.99891047 170.29817881 -13.99834919 169.42148304 C-13.98338639 148.72351798 -13.94095988 128.02576845 -13.86790943 107.32792377 C-13.83324612 97.3186073 -13.80790215 87.30942874 -13.80444336 77.30004883 C-13.80140533 68.57655677 -13.7809366 59.85331024 -13.73947543 51.12991303 C-13.71812904 46.51023337 -13.70555319 41.89090292 -13.71384621 37.27117348 C-13.72137604 32.923229 -13.70560756 28.57599268 -13.67193985 24.22817802 C-13.66369362 22.63225517 -13.66397194 21.03626206 -13.67340279 19.44034576 C-13.68500941 17.26048606 -13.66593572 15.08295327 -13.63923645 12.90327454 C-13.63508838 11.07397636 -13.63508838 11.07397636 -13.63085651 9.20772266 C-12.82318168 5.10093008 -11.18291538 3.62391171 -8 1 C-5.13391871 -0.43304064 -3.18699217 -0.30644155 0 0 Z " fill="#000000" transform="translate(630,200)"/>
<path d="M0 0 C6.65292139 5.12437825 10.63239192 12.35784953 12.484375 20.5 C13.60505326 29.68440922 12.0111493 36.94672338 6.58203125 44.4609375 C0.42559151 51.94443203 -6.58219166 56.81096721 -16.3515625 57.9765625 C-26.35613755 58.34100648 -34.53009066 55.6987564 -42.35546875 49.42578125 C-48.78723793 42.96640791 -51.50774947 35.27592636 -52.55078125 26.41015625 C-51.45431857 15.26278572 -47.76067347 6.92794189 -39.17578125 -0.40234375 C-27.36279448 -8.20846506 -11.67315975 -7.52363438 0 0 Z M-31.98828125 14.91015625 C-35.29684772 18.97496649 -36.44647831 22.40413235 -36.05078125 27.59765625 C-35.24265809 32.56999049 -32.89418776 36.04035035 -29.17578125 39.41015625 C-24.9896441 41.89567518 -20.99647154 41.99938044 -16.17578125 41.59765625 C-11.78877222 40.23645345 -8.26707948 38.3458688 -5.67578125 34.47265625 C-3.52304155 30.00379929 -3.38313056 25.4416327 -4.17578125 20.59765625 C-6.36014279 16.22893317 -8.97930143 13.11554414 -13.17578125 10.59765625 C-20.60706347 8.55440351 -25.99149834 9.97946808 -31.98828125 14.91015625 Z " fill="#000000" transform="translate(644.17578125,457.40234375)"/>
<path d="M0 0 C6.56244114 5.56457442 10.58988572 12.50491301 11.4609375 21.14453125 C11.58348289 32.06332567 9.56687656 39.03439444 2.0234375 47.0234375 C-4.75723566 53.4134546 -11.58043997 55.35337113 -20.875 55.8125 C-30.39305087 55.39218721 -37.3562361 50.74679153 -43.75 43.9375 C-49.64717631 36.64470424 -50.55680014 30.00150193 -50.3515625 20.64453125 C-49.41444292 13.10916806 -46.12417212 6.52331898 -40.5625 1.3125 C-28.47007799 -7.77692585 -12.50171272 -9.12625029 0 0 Z M-32.1875 16.0625 C-34.34541401 19.57910061 -35.06116501 22.74014046 -34.875 26.8125 C-33.18067349 32.69280966 -30.71463805 35.38442304 -25.875 38.8125 C-21.16977445 40.38090852 -17.34851184 40.36145539 -12.6875 38.625 C-8.17963671 35.71993255 -5.21202891 32.03906754 -3.875 26.8125 C-4.06190223 20.92507989 -4.99651302 17.44513723 -8.875 12.8125 C-12.71333721 9.42573188 -16.51154253 9.29978297 -21.44140625 9.4609375 C-26.2016429 10.14861214 -28.86047391 12.82539353 -32.1875 16.0625 Z " fill="#000000" transform="translate(674.875,545.1875)"/>
<path d="M0 0 C6.20261497 3.69228176 12.62098294 9.93116469 15.09765625 16.859375 C17.00011944 27.27674624 16.06983601 36.2285811 10.21484375 44.984375 C5.86691244 50.6524303 -0.42682052 54.74625044 -7.5 56.0625 C-17.24960252 56.9345319 -25.29568652 55.44555899 -33.25 49.5625 C-39.69533975 43.43866176 -42.84917958 35.6727202 -43.125 26.875 C-42.67918288 17.8694942 -39.72023302 11.38642949 -33.51953125 4.859375 C-24.45406065 -3.20661431 -11.14782774 -4.93738667 0 0 Z M-24.75 17.25 C-26.94489927 20.77751669 -28.24572502 23.89080116 -28.5 28.0625 C-26.98782039 33.31065275 -24.64406689 36.54004315 -20.5 40.0625 C-15.61317997 41.69144001 -11.72459932 41.43610657 -6.8125 39.9375 C-2.92434017 37.73665481 -1.49001128 36.04252255 0.5 32.0625 C1.63840311 27.88835525 1.65793411 25.60133402 0.4375 21.4375 C-2.10425893 17.00991993 -4.6159703 13.89979894 -9.6796875 12.4296875 C-16.05379956 11.42098963 -20.05090926 12.68143956 -24.75 17.25 Z " fill="#000000" transform="translate(625.5,622.9375)"/>
<path d="M0 0 C3.88424101 2.04428466 7.48669635 4.36652882 11 7 C11.86496094 7.63550781 12.72992187 8.27101563 13.62109375 8.92578125 C24.88201163 17.54297695 31.53571963 26.46841115 34.90966797 40.34692383 C35.08059401 41.04610082 35.25152004 41.74527781 35.42762566 42.46564198 C35.95757659 44.64240465 36.48006577 46.82082476 37 49 C37.23647625 49.98853281 37.23647625 49.98853281 37.4777298 50.99703598 C38.5865458 55.64418877 39.67424454 60.29613657 40.7578125 64.94921875 C41.10608178 66.44168588 41.45439536 67.93414267 41.80274963 69.42658997 C42.53495743 72.56510883 43.26613775 75.703865 43.99667358 78.84277344 C44.75332647 82.09332795 45.51170772 85.34347162 46.27163696 88.59326172 C49.99925579 104.53521488 53.72366606 120.47376824 57.12890625 136.48828125 C57.35515686 137.54432053 57.58140747 138.6003598 57.81451416 139.68840027 C58.82794727 144.42523079 59.82247954 149.16435053 60.77978516 153.9128418 C62.54503638 162.3965712 64.55739959 169.09084234 70 176 C77.30061634 190.29999365 78.78435109 203.66832946 74 219 C70.54438119 227.30677598 65.30561995 233.673149 59 240 C58.35804688 240.66515625 57.71609375 241.3303125 57.0546875 242.015625 C10.51580712 286.91195666 -72.75751312 293.06123151 -134 298 C-135.00047363 298.08797852 -136.00094727 298.17595703 -137.03173828 298.26660156 C-139.5618104 298.48824647 -142.0922125 298.68736626 -144.625 298.875 C-145.93726563 298.97554687 -147.24953125 299.07609375 -148.6015625 299.1796875 C-153.33860728 298.92922306 -156.49417041 297.58893276 -159.76953125 294.1328125 C-161.14102122 291.75556322 -161.90210456 289.50320133 -162.6875 286.875 C-166.38284701 276.43041544 -173.10532236 269.72884436 -183 265 C-183.67289063 264.66097656 -184.34578125 264.32195312 -185.0390625 263.97265625 C-193.88509032 260.26688784 -205.9733248 260.58644314 -215 263.625 C-223.5487651 267.32946488 -232.88701887 272.86567262 -236.76806641 281.76025391 C-237.78495138 284.39464012 -238.77514476 287.02145457 -239.6081543 289.72045898 C-240.8008724 293.23056166 -242.05384704 295.04672131 -244.86328125 297.484375 C-250.3291459 300.13112416 -256.33028554 299.04023038 -262.1875 298.5 C-264.1526355 298.34096191 -264.1526355 298.34096191 -266.1574707 298.17871094 C-269.70961821 297.88490587 -273.25748853 297.55536785 -276.80517578 297.2121582 C-278.98951843 297.00101318 -281.17438344 296.7961046 -283.359375 296.59179688 C-342.57550353 290.97908141 -417.78051097 281.46100723 -462 238 C-463.08087891 236.93845703 -463.08087891 236.93845703 -464.18359375 235.85546875 C-473.69988744 225.87145552 -478.43816162 213.95036361 -478.36352539 200.19824219 C-478.09659402 189.83893216 -474.22345003 181.70644002 -468.68359375 173.08203125 C-464.81132269 165.99334943 -463.17647881 158.01248759 -461.390625 150.19140625 C-461.14692673 149.1395816 -460.90322845 148.08775696 -460.65214539 147.00405884 C-459.84726991 143.52448547 -459.04872234 140.04349044 -458.25 136.5625 C-457.683358 134.11035576 -457.11637495 131.65829031 -456.54907227 129.20629883 C-453.47771198 115.90643857 -450.45169418 102.59671724 -447.45969009 89.27878761 C-446.95135137 87.01730006 -446.44213357 84.75601237 -445.93258667 82.49479675 C-445.76563482 81.75382909 -445.59868298 81.01286142 -445.42667198 80.24944019 C-445.0916178 78.76243154 -444.75652608 77.27543135 -444.42139626 75.78843975 C-443.43976996 71.42947046 -442.46532339 67.06897131 -441.49618053 62.70721054 C-440.88531732 59.96463206 -440.26848282 57.2234194 -439.65024757 54.48249435 C-439.23115903 52.61564588 -438.81949139 50.74713622 -438.40812683 48.87857056 C-434.30627242 30.76214679 -427.2280905 17.68065398 -411.17578125 7.52734375 C-373.81822352 -15.33040881 -330.19156957 -23.67606132 -287.3125 -29.3125 C-286.01820068 -29.48410645 -284.72390137 -29.65571289 -283.39038086 -29.83251953 C-264.96913142 -32.15469872 -264.96913142 -32.15469872 -260.5 -28.9375 C-257.4972373 -25.40925382 -256.91911075 -23.61068705 -257 -19 C-258.51516628 -14.98480937 -259.4055253 -13.39631647 -263 -11 C-265.72607422 -10.48510742 -265.72607422 -10.48510742 -269.0546875 -10.10546875 C-270.29452393 -9.9573877 -271.53436035 -9.80930664 -272.81176758 -9.65673828 C-273.47302643 -9.58070374 -274.13428528 -9.50466919 -274.81558228 -9.42633057 C-349.44106387 -1.79732602 -349.44106387 -1.79732602 -411.4765625 35.82421875 C-414.70996263 40.44217739 -415.46159893 44.12253759 -414.65234375 49.60546875 C-411.87588735 59.79689252 -402.91450357 66.16136576 -394.2421875 71.25390625 C-362.79348641 88.97476145 -325.33380994 95.98374305 -290 101 C-289.89042969 100.26394531 -289.78085937 99.52789063 -289.66796875 98.76953125 C-288.34577949 90.63215509 -286.56937097 85.67194597 -280.0625 80.42578125 C-271.9683127 74.83036768 -263.65999706 73.94360799 -254 75 C-246.35724013 76.64958674 -240.0497149 79.95021931 -235 86 C-231.94959476 90.90065104 -231.72166207 95.29658814 -232.48046875 100.921875 C-233 103 -233 103 -235 107 C-213.22 107 -191.44 107 -169 107 C-169 103.7 -169 100.4 -169 97 C-166.20708898 90.29701356 -161.88728329 85.79370357 -155.265625 82.73828125 C-143.90361724 78.54375766 -134.03780896 78.92260788 -123 84 C-117.48527727 87.35247533 -114.09406514 91.89989719 -112 98 C-112 98.99 -112 99.98 -112 101 C-77.0083563 95.65561712 -40.08477129 89.81509298 -9 72 C-7.453125 71.12214844 -7.453125 71.12214844 -5.875 70.2265625 C1.85978083 65.58149032 11.08324997 59.17371888 13.53125 50.01171875 C14.65010804 43.78269177 13.35260269 39.30747306 10 34 C-13.3909944 2.61208443 -74.28020265 -2.46842263 -109.87524414 -7.69793701 C-122.30795516 -9.46541624 -134.80584857 -10.66100246 -147.33203125 -11.515625 C-148.52425293 -11.59844727 -149.71647461 -11.68126953 -150.94482422 -11.76660156 C-153.20988305 -11.91796436 -155.47587631 -12.05614503 -157.74267578 -12.17871094 C-167.15334691 -12.78120971 -167.15334691 -12.78120971 -171 -16 C-173.11480682 -18.6982018 -173.92463308 -20.55721934 -174.5 -23.9375 C-173.79092206 -28.28060236 -172.10290655 -29.89709345 -169 -33 C-125.12566921 -47.62477693 -38.35823826 -19.03351637 0 0 Z M-423 76 C-425.92917314 86.67855549 -428.54518802 97.40008426 -431.00390625 108.1953125 C-431.37191081 109.80188305 -431.74015635 111.40839842 -432.10862732 113.01486206 C-433.06821224 117.20130942 -434.02464878 121.3884695 -434.98034668 125.57580566 C-435.9479126 129.81268534 -436.91838669 134.04889864 -437.88867188 138.28515625 C-439.15134214 143.7987872 -440.4136799 149.31249198 -441.6724081 154.82702446 C-441.99470936 156.236239 -442.3182113 157.64517955 -442.64301395 159.05381966 C-443.38936769 162.2945098 -444.11368833 165.5358625 -444.80392456 168.78924561 C-445.05288483 169.94402405 -445.30184509 171.09880249 -445.55834961 172.28857422 C-445.76777695 173.292341 -445.97720428 174.29610779 -446.19297791 175.33029175 C-447.27800644 178.91967256 -449.12728962 181.34508462 -451.5078125 184.1875 C-456.5870421 190.35703543 -458.27194422 197.06829357 -458 205 C-456.85544028 211.82333678 -453.46633927 216.85600925 -449 222 C-448.47019531 222.63550781 -447.94039063 223.27101563 -447.39453125 223.92578125 C-432.86658561 239.92897081 -409.1051383 248.57404721 -389 255 C-388.25234375 255.24314941 -387.5046875 255.48629883 -386.734375 255.73681641 C-354.79937348 266.04469546 -321.48665345 271.72182843 -288.1875 275.375 C-287.42198822 275.46058167 -286.65647644 275.54616333 -285.86776733 275.63433838 C-276.19844641 276.69969662 -266.73864272 277.22632261 -257 277 C-256.484375 275.865625 -255.96875 274.73125 -255.4375 273.5625 C-248.51671624 259.84192521 -236.53157668 249.49467582 -222.07910156 244.31103516 C-204.88727414 238.7884259 -187.93510579 240.09679651 -171.625 247.75 C-158.20594321 255.04138452 -150.87213471 265.28976173 -143 278 C-87.28340183 273.37559694 -26.88347746 267.30714493 23 240 C24.08796875 239.41347656 25.1759375 238.82695313 26.296875 238.22265625 C37.74944972 231.81328385 52.18068783 222.44669078 56 209 C57.03169921 200.71449812 56.22918503 193.27103202 52 186 C51.33339355 185.25617065 51.33339355 185.25617065 50.65332031 184.49731445 C45.43217881 178.51304512 44.08256014 171.7948234 42.50003052 164.20858765 C41.98677404 161.74912274 41.44946584 159.29597636 40.90600586 156.84301758 C40.07621999 153.0900973 39.25607917 149.33522454 38.44091797 145.57910156 C36.03076095 134.52323781 33.51225012 123.49142932 30.99202919 112.46022701 C30.03866736 108.2854101 29.09384711 104.10878217 28.15594578 99.9304657 C27.7070123 97.93516516 27.25474407 95.94065558 26.80101013 93.94644165 C26.23892495 91.47574126 25.68211323 89.0038337 25.13124084 86.53060913 C24.87982834 85.43407013 24.62841583 84.33753113 24.36938477 83.20776367 C24.04370262 81.76538582 24.04370262 81.76538582 23.71144104 80.29386902 C23.14339518 77.83279214 23.14339518 77.83279214 21 76 C20.3915625 76.54527344 19.783125 77.09054687 19.15625 77.65234375 C-45.75363969 133.49394003 -169.23779273 131.66701888 -249.625 126.25 C-254.09088875 125.8967604 -258.54422928 125.4623673 -263 125 C-264.28100586 124.87641113 -265.56201172 124.75282227 -266.88183594 124.62548828 C-318.5077843 119.61368889 -378.50844921 111.42374925 -420 78 C-420.99 77.34 -421.98 76.68 -423 76 Z M-274.5625 92.375 C-276.19303302 94.8760479 -276.19303302 94.8760479 -276.0625 97.5625 C-274.62877215 100.85164035 -273.03614547 102.11084282 -270 104 C-263.4366264 105.8752496 -255.65155722 106.14291259 -249.375 103.4375 C-246.76220133 101.10198322 -246.76220133 101.10198322 -245.8125 97.5625 C-245.67245095 93.88769775 -245.67245095 93.88769775 -248.125 91.1875 C-256.34367817 84.93415791 -266.93643743 85.30694201 -274.5625 92.375 Z M-155 98 C-155.91428339 99.90708843 -155.91428339 99.90708843 -156 102 C-155.37231722 103.35212298 -154.70903071 104.68870382 -154 106 C-140.47120713 105.35241789 -140.47120713 105.35241789 -127 104 C-126.04979584 101.760165 -126.04979584 101.760165 -126 99 C-129.34550227 94.50448133 -132.57816243 93.06500381 -138 92 C-143.95301601 91.21670842 -151.09050263 93.36120801 -155 98 Z " fill="#000000" transform="translate(828,689)"/>
<path d="M0 0 C4.52101088 3.71564862 7.10446937 7.78844782 7.96484375 13.61328125 C8.17306343 18.56890966 7.51058754 22.16446791 4.625 26.3125 C-2.57178461 33.84967307 -9.56547287 36.80949968 -19.9609375 37.37109375 C-29.09487928 37.21433274 -36.8076743 34.76905153 -43.375 28.3125 C-47.35277932 23.72275464 -48.77150084 19.3194877 -48.375 13.3125 C-46.6894078 6.59231004 -43.12938905 2.0643134 -37.375 -1.6875 C-25.72578176 -8.0212967 -10.9735911 -7.44419211 0 0 Z M-33.4375 11.0625 C-34.91327751 14.60436603 -34.53967832 16.68905634 -33.375 20.3125 C-28.24598756 24.85867012 -23.10988766 24.91483272 -16.4140625 24.70703125 C-12.23660514 24.16471352 -10.4150178 23.18819251 -7.375 20.3125 C-5.11614932 17.50583909 -5.11614932 17.50583909 -5.3125 14.375 C-6.4707388 11.03654697 -6.85290406 10.67823317 -9.75 9 C-17.90308346 5.20459908 -26.33154646 5.03320608 -33.4375 11.0625 Z " fill="#000000" transform="translate(654.375,746.6875)"/>
</svg>
