<svg id="svg" xmlns="http://www.w3.org/2000/svg" xmlns:xlink="http://www.w3.org/1999/xlink" width="400" height="360.78431372549016" viewBox="0, 0, 400,360.78431372549016"><g id="svgg"><path id="path0" d="M160.244 56.427 C 140.051 67.732,108.088 85.342,89.216 95.559 L 54.902 114.136 54.902 211.490 C 54.902 293.355,55.840 309.622,60.800 313.738 C 68.581 320.197,150.872 317.272,164.706 310.045 C 211.968 285.357,202.196 239.216,149.705 239.216 C 80.604 239.216,96.606 193.607,171.400 177.376 C 235.651 163.433,294.118 198.519,294.118 251.019 C 294.118 276.035,270.291 309.804,252.640 309.804 C 249.570 309.804,247.059 311.569,247.059 313.725 C 247.059 320.760,331.725 318.695,338.936 311.485 C 348.745 301.675,348.110 121.484,338.235 112.889 C 331.657 107.162,217.310 44.007,203.594 38.525 C 199.293 36.806,184.043 43.104,160.244 56.427 " stroke="none" fill="#000000" fill-rule="evenodd"></path></g></svg>