<svg id="svg" xmlns="http://www.w3.org/2000/svg" xmlns:xlink="http://www.w3.org/1999/xlink" width="400" height="410.1167315175097" viewBox="0, 0, 400,410.1167315175097"><g id="svgg"><path id="path0" d="M87.160 11.921 C 51.768 15.014,13.151 30.202,6.514 43.639 C 4.354 48.010,4.364 48.455,7.008 65.459 C 12.200 98.851,15.101 121.745,14.388 123.698 C 13.312 126.645,13.318 128.127,14.447 138.862 C 15.540 149.261,15.621 149.701,16.921 152.365 C 19.419 157.486,23.365 213.035,27.013 294.441 C 27.538 306.168,27.542 306.202,28.693 308.643 C 30.823 313.160,37.303 319.428,39.883 319.468 C 40.766 319.481,41.241 319.790,41.831 320.735 C 45.141 326.032,90.734 343.243,131.712 354.666 C 160.317 362.640,191.038 368.556,194.650 366.787 C 195.251 366.493,195.331 366.677,195.331 368.370 C 195.331 394.468,262.888 411.429,330.475 402.300 C 363.486 397.841,389.153 386.386,395.372 373.338 C 397.557 368.753,397.566 368.008,395.584 355.818 C 392.951 339.615,392.439 335.653,391.237 322.179 C 390.365 312.399,389.545 309.981,385.339 304.793 C 377.217 294.772,358.720 285.786,335.382 280.524 C 325.702 278.342,315.061 276.809,313.557 277.381 C 312.986 277.599,310.491 277.540,306.999 277.228 C 303.898 276.951,299.042 276.598,296.206 276.444 L 291.051 276.165 291.081 273.199 C 291.097 271.568,291.318 266.119,291.572 261.089 L 292.034 251.946 293.450 250.117 C 296.141 246.642,296.257 245.914,297.090 227.237 C 298.535 194.843,299.183 186.393,300.386 184.241 C 301.803 181.708,301.810 181.664,302.730 169.890 C 303.531 159.643,303.505 158.203,302.462 155.447 C 301.784 153.654,301.760 154.037,303.735 135.019 C 305.157 121.323,305.999 114.269,308.612 94.163 C 310.774 77.523,310.497 76.158,303.543 69.233 C 292.131 57.867,254.490 42.085,207.588 28.999 C 203.307 27.804,198.317 26.384,196.498 25.843 C 157.853 14.337,117.829 9.240,87.160 11.921 M121.401 13.640 C 144.021 15.088,169.975 20.074,199.027 28.553 C 205.233 30.364,211.449 32.133,212.840 32.485 C 221.218 34.600,251.509 44.891,264.429 50.011 C 279.212 55.870,285.334 58.776,292.905 63.528 L 295.343 65.058 292.060 67.015 C 290.254 68.092,287.246 70.174,285.375 71.644 L 281.973 74.315 279.771 72.215 C 271.860 64.669,252.261 55.730,221.401 45.593 C 143.428 19.980,95.663 17.127,51.960 35.472 C 45.396 38.228,42.720 39.632,43.041 40.151 C 43.203 40.413,43.136 40.479,42.873 40.317 C 42.324 39.977,39.976 41.155,40.266 41.624 C 40.383 41.814,40.275 42.096,40.024 42.251 C 39.723 42.437,39.673 42.363,39.877 42.033 C 40.078 41.708,40.009 41.592,39.680 41.702 C 39.103 41.894,38.823 43.091,39.287 43.377 C 39.456 43.482,40.119 43.306,40.760 42.986 C 42.502 42.117,46.248 41.525,48.405 41.777 C 51.012 42.083,74.171 48.249,75.007 48.861 C 75.997 49.585,75.321 49.967,74.256 49.286 C 71.849 47.748,49.347 42.324,46.073 42.493 C 40.163 42.798,33.638 48.402,32.700 53.978 L 32.387 55.837 32.341 54.054 C 32.311 52.859,32.612 51.648,33.255 50.377 C 34.419 48.078,34.285 47.652,33.034 49.675 C 30.922 53.092,32.015 59.033,35.099 60.898 C 38.603 63.016,48.825 60.864,67.449 54.084 C 80.090 49.483,79.985 49.299,62.007 44.529 C 49.283 41.153,46.738 40.756,43.158 41.588 C 42.102 41.834,41.764 41.788,41.764 41.401 C 41.764 41.120,41.904 40.977,42.075 41.082 C 42.608 41.412,45.575 39.695,45.284 39.225 C 45.131 38.977,45.191 38.898,45.424 39.042 C 45.648 39.181,46.464 39.030,47.236 38.708 C 48.583 38.145,48.914 38.195,55.351 39.923 C 65.397 42.622,69.510 42.509,75.287 39.378 C 79.120 37.301,78.098 36.413,69.280 34.163 C 65.779 33.269,63.206 32.432,63.492 32.280 C 64.431 31.781,72.168 29.612,72.763 29.682 C 73.084 29.719,75.360 29.271,77.821 28.685 C 93.233 25.021,122.989 23.537,126.698 26.249 C 127.832 27.078,127.127 27.317,125.678 26.594 C 121.204 24.362,96.879 25.391,81.538 28.462 C 76.567 29.457,74.964 29.923,72.603 31.064 C 72.409 31.158,72.363 30.939,72.502 30.578 C 72.651 30.189,72.596 30.018,72.369 30.158 C 71.811 30.503,71.898 31.350,72.546 31.888 C 73.341 32.548,97.398 38.924,100.085 39.187 C 105.091 39.678,115.096 35.722,125.000 29.336 C 127.777 27.545,128.015 27.144,126.982 26.003 C 126.147 25.080,127.348 25.059,134.438 25.872 C 182.320 31.363,260.618 56.744,278.502 72.572 C 280.937 74.726,280.971 74.900,279.086 75.504 C 262.850 80.703,227.555 94.653,203.113 105.532 C 196.372 108.533,190.681 110.982,190.467 110.976 C 155.509 109.871,68.344 84.433,42.680 67.845 C 41.222 66.903,39.821 66.251,39.567 66.397 C 39.313 66.543,39.235 66.518,39.394 66.343 C 39.688 66.018,39.038 64.981,38.539 64.981 C 38.386 64.981,38.262 65.252,38.262 65.584 C 38.262 66.366,40.326 67.837,40.913 67.474 C 41.174 67.313,41.261 67.364,41.119 67.594 C 40.302 68.915,58.272 77.500,74.319 83.453 C 110.511 96.882,147.846 106.651,178.210 110.638 C 180.457 110.933,182.033 111.265,181.712 111.374 C 181.391 111.484,180.078 111.877,178.794 112.248 C 176.448 112.925,174.708 114.108,174.708 115.025 C 174.708 116.079,169.715 115.550,157.606 113.214 C 98.377 101.788,23.391 74.662,10.477 59.991 C 9.595 58.990,8.731 58.171,8.555 58.171 C 8.380 58.171,8.090 58.012,7.912 57.817 C 7.723 57.611,7.791 57.580,8.074 57.743 C 8.716 58.112,8.689 57.756,7.995 56.698 C 4.034 50.652,8.206 41.374,17.725 35.058 C 41.205 19.480,81.763 11.101,121.401 13.640 M125.000 26.772 C 125.589 27.017,126.070 27.386,126.070 27.591 C 126.070 28.052,120.759 31.266,116.370 33.459 L 113.091 35.098 105.670 35.419 C 101.588 35.595,96.761 35.936,94.942 36.177 L 91.634 36.614 82.802 34.260 C 77.945 32.966,73.874 31.907,73.756 31.907 C 73.242 31.907,73.606 31.121,74.289 30.755 C 76.358 29.648,92.564 26.993,101.362 26.319 C 105.712 25.986,123.953 26.336,125.000 26.772 M65.307 34.996 C 68.659 35.867,68.864 36.008,67.870 36.770 C 65.147 38.858,59.182 39.611,54.864 38.412 L 51.556 37.493 55.642 35.879 C 60.270 34.050,61.301 33.956,65.307 34.996 M71.734 36.194 C 72.629 37.024,66.393 39.524,62.600 39.856 L 60.117 40.073 62.999 39.298 C 66.066 38.474,69.167 36.883,69.525 35.950 C 69.742 35.386,71.014 35.526,71.734 36.194 M110.108 36.363 C 106.111 38.538,100.642 39.095,96.109 37.790 C 93.595 37.066,93.588 37.061,94.942 36.803 C 99.881 35.862,111.656 35.520,110.108 36.363 M74.708 37.399 C 74.708 38.170,74.396 38.287,73.378 37.896 C 72.306 37.485,72.613 36.266,73.735 36.481 C 74.363 36.601,74.708 36.927,74.708 37.399 M76.196 37.484 C 76.270 37.868,76.072 38.132,75.709 38.132 C 75.349 38.132,75.097 37.800,75.097 37.322 C 75.097 36.373,76.007 36.507,76.196 37.484 M72.374 38.956 C 72.374 40.379,70.850 40.895,66.148 41.065 C 64.115 41.138,62.889 41.117,63.424 41.018 C 67.261 40.309,71.410 38.777,71.053 38.199 C 70.955 38.040,71.212 37.910,71.624 37.910 C 72.178 37.910,72.374 38.183,72.374 38.956 M38.084 42.607 C 38.057 42.714,38.010 42.933,37.980 43.093 C 37.950 43.254,37.794 43.592,37.634 43.845 C 37.209 44.513,38.066 44.897,38.738 44.340 C 39.132 44.013,39.188 43.720,38.919 43.395 C 38.704 43.136,38.643 42.809,38.784 42.668 C 38.925 42.528,38.836 42.412,38.586 42.412 C 38.337 42.412,38.110 42.500,38.084 42.607 M61.456 46.143 C 77.706 50.430,77.245 49.835,67.163 53.514 C 58.896 56.530,59.852 56.495,52.325 54.058 L 46.231 52.085 44.729 53.125 C 42.568 54.623,39.358 58.132,38.693 59.724 C 37.270 63.128,33.316 59.524,33.360 54.863 C 33.415 48.986,40.307 42.930,47.059 42.828 C 48.063 42.813,54.094 44.201,61.456 46.143 M36.576 43.774 C 36.309 44.095,36.228 44.358,36.394 44.358 C 36.560 44.358,36.363 44.727,35.955 45.177 C 35.548 45.628,35.237 46.109,35.265 46.247 C 35.293 46.385,35.075 46.843,34.779 47.266 C 34.434 47.757,34.241 47.841,34.241 47.497 C 34.241 46.595,32.932 48.030,31.937 50.023 C 30.296 53.307,30.484 56.344,32.510 59.331 C 33.055 60.134,33.421 60.872,33.322 60.971 C 33.223 61.070,32.700 60.393,32.159 59.466 C 29.270 54.515,29.770 51.210,34.094 46.676 C 35.310 45.401,36.121 44.358,35.896 44.358 C 34.048 44.358,29.871 51.144,29.871 54.148 C 29.871 57.354,35.578 65.759,37.755 65.759 C 38.495 65.759,37.759 64.591,35.704 62.503 C 31.113 57.838,30.199 53.065,33.113 48.972 C 33.552 48.355,34.044 47.933,34.207 48.033 C 34.369 48.133,35.247 47.455,36.159 46.527 C 37.236 45.429,37.660 44.742,37.372 44.563 C 37.040 44.358,37.043 44.150,37.383 43.740 C 37.650 43.418,37.677 43.191,37.449 43.191 C 37.235 43.191,36.842 43.453,36.576 43.774 M52.530 54.696 C 55.567 55.674,57.978 56.548,57.889 56.638 C 56.395 58.132,38.911 61.757,38.911 60.573 C 38.911 58.838,44.674 52.919,46.364 52.919 C 46.718 52.918,49.492 53.718,52.530 54.696 M16.732 65.826 C 39.441 81.729,120.248 108.247,168.385 115.594 C 172.577 116.233,174.319 116.650,174.319 117.012 C 174.319 117.340,174.004 117.456,173.444 117.335 C 172.962 117.231,170.117 116.773,167.121 116.317 C 145.782 113.070,117.648 105.873,84.047 95.066 C 41.645 81.429,15.780 69.223,9.260 59.774 C 8.789 59.091,9.687 59.763,11.312 61.308 C 12.902 62.819,15.340 64.852,16.732 65.826 M18.713 68.600 C 42.171 84.202,122.689 110.344,168.358 117.185 L 174.265 118.070 174.508 119.369 C 174.919 121.561,174.670 170.046,174.236 172.179 C 172.638 180.045,165.727 185.603,157.546 185.603 C 152.813 185.603,110.671 175.131,109.292 173.612 C 109.160 173.466,108.853 171.319,108.611 168.841 C 107.718 159.718,103.383 154.810,93.086 151.260 C 84.421 148.274,79.183 150.133,79.183 156.194 C 79.183 158.013,78.993 159.253,78.652 159.664 C 78.277 160.116,78.198 160.821,78.384 162.059 C 78.529 163.024,78.568 163.813,78.472 163.813 C 78.105 163.813,68.786 160.526,62.257 158.094 C 38.374 149.198,21.982 140.033,17.955 133.325 C 17.155 131.991,16.261 125.220,16.606 123.108 C 16.910 121.252,12.896 90.485,9.708 70.233 C 8.866 64.883,8.176 60.298,8.174 60.043 C 8.173 59.788,9.528 60.935,11.187 62.590 C 12.871 64.271,16.194 66.925,18.713 68.600 M36.965 64.478 C 36.965 64.770,36.616 64.461,35.003 62.743 L 33.268 60.895 35.117 62.630 C 36.133 63.584,36.965 64.415,36.965 64.478 M299.464 68.000 C 307.150 74.264,310.157 81.978,307.163 87.748 C 306.499 89.029,306.480 89.234,307.060 88.876 C 308.121 88.220,305.864 91.235,303.714 93.346 C 293.872 103.008,265.889 113.757,240.426 117.658 C 222.888 120.344,198.142 120.522,179.442 118.096 C 177.231 117.809,175.319 117.473,175.195 117.348 C 174.566 116.719,175.913 116.700,180.815 117.269 C 221.904 122.039,260.746 116.297,290.812 101.007 C 297.973 97.366,306.615 91.039,306.615 89.437 C 306.615 89.244,305.606 90.116,304.374 91.375 C 287.512 108.607,235.660 121.000,193.385 117.901 C 177.862 116.763,174.688 116.188,175.393 114.640 C 176.495 112.223,179.066 111.918,198.638 111.883 C 223.756 111.838,235.344 110.145,253.502 103.867 C 278.641 95.175,288.887 86.028,283.718 76.890 L 282.421 74.598 283.526 73.694 C 287.943 70.080,294.763 65.788,296.120 65.768 C 296.447 65.763,297.952 66.767,299.464 68.000 M282.476 77.633 C 287.177 86.768,274.443 96.619,247.276 104.863 C 232.037 109.488,203.795 112.792,194.653 111.020 L 193.003 110.700 198.544 108.218 C 223.431 97.072,245.228 88.284,270.623 79.158 C 282.119 75.027,281.196 75.146,282.476 77.633 M305.088 106.268 C 302.050 130.334,300.351 147.228,300.189 154.992 C 299.940 166.934,296.437 170.885,279.767 178.023 C 246.019 192.473,211.725 195.557,167.899 188.085 C 159.158 186.594,158.064 186.246,160.908 185.856 C 166.643 185.070,172.511 179.886,174.329 173.999 C 175.100 171.503,175.126 170.559,175.105 144.854 C 175.094 130.243,175.234 118.288,175.417 118.288 C 175.599 118.288,178.885 118.631,182.719 119.050 C 218.644 122.978,249.495 119.390,278.599 107.899 C 291.312 102.879,299.558 98.219,304.280 93.385 C 305.671 91.960,306.858 90.828,306.916 90.868 C 306.975 90.908,306.153 97.838,305.088 106.268 M245.331 92.599 C 244.475 92.782,243.308 93.111,242.737 93.331 C 241.924 93.644,241.654 93.609,241.485 93.168 C 241.249 92.554,239.862 92.401,239.521 92.952 C 239.404 93.142,239.561 93.507,239.870 93.764 C 240.349 94.161,240.276 94.371,239.380 95.175 L 238.327 96.119 239.631 97.245 C 243.562 100.641,251.884 100.889,256.712 97.755 C 260.125 95.539,250.974 91.394,245.331 92.599 M250.778 93.815 C 253.703 94.614,255.952 95.764,256.162 96.569 C 256.275 97.000,256.270 97.255,256.150 97.136 C 256.030 97.016,255.411 97.188,254.775 97.517 C 251.092 99.421,248.041 99.621,244.163 98.212 C 242.665 97.667,241.159 97.196,240.817 97.165 C 240.426 97.130,240.261 96.856,240.373 96.427 C 240.931 94.294,246.976 92.776,250.778 93.815 M244.892 94.910 C 242.096 96.179,243.463 97.748,247.883 98.340 C 249.252 98.524,253.696 96.970,253.696 96.307 C 253.696 94.782,247.381 93.780,244.892 94.910 M246.343 95.346 C 244.500 96.182,244.513 96.442,246.429 97.149 C 247.109 97.401,247.403 97.615,247.082 97.626 C 246.761 97.636,245.798 97.320,244.942 96.924 L 243.385 96.203 245.136 95.386 C 246.099 94.937,247.150 94.570,247.471 94.570 C 247.792 94.570,247.284 94.919,246.343 95.346 M251.482 95.519 C 252.272 95.849,252.918 96.214,252.918 96.329 C 252.918 96.608,250.351 97.669,249.721 97.650 C 249.446 97.642,249.821 97.375,250.554 97.057 C 252.078 96.396,251.896 96.030,249.601 95.140 C 248.751 94.811,248.502 94.626,249.050 94.730 C 249.597 94.834,250.692 95.189,251.482 95.519 M249.794 95.774 L 251.066 96.218 249.804 96.748 C 248.032 97.494,244.894 96.680,246.374 95.859 C 247.505 95.232,248.189 95.215,249.794 95.774 M20.943 137.769 C 29.136 145.126,47.126 153.747,73.249 162.837 C 76.192 163.861,78.599 164.861,78.599 165.060 C 78.599 165.508,78.510 165.481,69.419 162.251 C 36.768 150.651,15.564 138.634,15.564 131.731 C 15.564 131.344,16.262 132.084,17.149 133.413 C 18.020 134.718,19.728 136.678,20.943 137.769 M20.965 139.465 C 29.042 146.545,51.384 156.971,75.608 164.964 C 77.492 165.586,78.349 166.081,78.568 166.674 C 78.940 167.680,79.968 183.197,79.682 183.483 C 79.462 183.703,67.425 179.475,59.182 176.283 C 41.818 169.559,28.671 162.742,22.546 157.287 C 18.608 153.780,16.083 145.119,15.960 134.691 C 15.956 134.403,16.589 134.928,17.365 135.858 C 18.142 136.787,19.762 138.411,20.965 139.465 M81.091 152.181 C 80.501 152.834,80.360 153.548,80.396 155.683 C 80.422 157.159,80.290 158.366,80.104 158.366 C 79.919 158.366,79.767 157.385,79.767 156.187 C 79.767 153.997,80.674 151.362,81.428 151.362 C 81.650 151.362,81.499 151.731,81.091 152.181 M91.518 151.833 L 93.580 152.303 90.661 152.565 C 86.087 152.975,84.508 154.154,84.138 157.439 C 83.978 158.859,83.808 159.143,83.121 159.138 C 80.401 159.118,79.968 152.819,82.613 151.754 C 83.872 151.246,89.155 151.293,91.518 151.833 M88.381 153.840 C 86.730 154.438,85.992 155.437,85.992 157.078 C 85.992 157.963,85.810 158.366,85.409 158.366 C 84.667 158.366,84.652 156.587,85.383 155.268 C 85.885 154.362,87.832 153.367,89.105 153.367 C 89.426 153.367,89.100 153.580,88.381 153.840 M96.984 154.540 C 101.421 155.504,105.819 159.475,106.930 163.521 C 107.426 165.331,108.571 165.524,96.911 161.826 C 85.698 158.269,86.193 158.516,86.544 156.649 C 87.031 154.052,91.026 153.245,96.984 154.540 M28.216 162.425 C 36.985 168.252,53.000 175.351,73.930 182.688 C 77.461 183.926,80.700 185.245,81.128 185.618 C 82.811 187.087,105.150 193.819,106.567 193.284 C 107.695 192.858,107.907 192.887,108.372 193.523 C 109.434 194.974,142.633 203.772,159.922 207.182 C 207.130 216.495,241.826 214.270,276.848 199.684 C 285.719 195.989,291.982 192.390,295.856 188.758 L 297.354 187.354 297.121 190.467 C 296.658 196.628,296.059 207.521,295.178 225.766 L 294.282 244.334 293.062 246.813 C 290.793 251.421,284.031 255.706,270.233 261.278 C 251.606 268.800,235.820 271.845,213.006 272.318 L 200.914 272.568 199.350 273.603 C 196.833 275.270,196.607 276.154,196.326 285.409 C 195.302 319.194,194.030 337.572,191.378 356.907 L 190.538 363.035 189.167 363.035 C 171.120 363.035,97.781 342.608,61.186 327.388 C 45.988 321.068,42.785 319.112,41.821 315.564 C 40.644 311.233,36.965 310.267,36.965 314.288 L 36.965 315.736 34.417 313.218 C 31.056 309.897,29.583 306.952,29.341 303.072 C 29.243 301.489,28.811 292.228,28.382 282.490 C 26.410 237.712,21.819 165.704,20.396 157.225 L 20.172 155.890 22.457 158.003 C 23.714 159.166,26.306 161.155,28.216 162.425 M96.942 162.435 L 107.309 165.769 107.471 167.152 C 107.591 168.181,107.459 168.628,106.954 168.898 C 106.035 169.390,105.837 169.356,105.837 168.707 C 105.837 166.830,104.186 165.996,94.199 162.828 C 84.766 159.837,83.655 159.374,85.117 159.050 C 85.964 158.862,84.763 158.518,96.942 162.435 M92.536 162.912 C 101.533 165.790,104.431 166.871,104.750 167.465 C 105.365 168.615,107.013 191.902,106.523 192.510 C 106.307 192.777,105.845 192.997,105.497 192.999 C 104.012 193.006,81.256 185.426,80.929 184.815 C 80.215 183.483,78.796 159.893,79.406 159.507 C 80.257 158.969,80.008 158.904,92.536 162.912 M300.600 172.692 L 299.971 180.739 298.370 183.969 C 295.518 189.726,288.317 194.467,273.541 200.315 C 235.876 215.222,197.218 215.892,142.412 202.588 C 131.667 199.979,109.105 193.745,108.734 193.281 C 108.665 193.195,107.405 177.764,107.265 175.292 C 107.180 173.805,106.523 173.701,117.899 176.972 C 186.732 196.762,231.406 197.873,274.319 180.862 C 288.046 175.421,299.073 168.245,300.634 163.737 L 300.944 162.840 301.086 163.742 C 301.164 164.238,300.945 168.266,300.600 172.692 M107.954 171.837 C 108.148 172.610,108.017 172.992,107.412 173.416 C 106.850 173.809,106.594 174.456,106.545 175.606 C 106.502 176.602,106.388 176.102,106.253 174.319 C 105.997 170.958,106.026 170.817,106.985 170.817 C 107.430 170.817,107.794 171.201,107.954 171.837 M107.535 186.284 C 107.798 189.548,107.898 192.218,107.759 192.218 C 107.489 192.218,107.120 187.910,106.844 181.518 C 106.632 176.634,106.914 178.575,107.535 186.284 M289.904 252.102 C 288.508 254.709,279.168 259.939,268.093 264.314 C 249.358 271.715,234.416 274.611,213.236 274.949 C 205.785 275.067,202.799 275.245,202.456 275.591 C 202.116 275.935,201.866 280.188,201.571 290.661 C 200.668 322.706,197.728 359.738,195.919 361.868 C 195.646 362.189,195.302 362.847,195.155 363.331 C 194.318 366.076,190.325 365.838,169.650 361.811 C 140.011 356.037,96.635 342.998,64.786 330.287 C 58.692 327.855,44.319 320.929,43.622 320.089 C 43.400 319.822,45.533 320.762,48.360 322.177 C 72.625 334.319,129.644 352.596,166.148 359.932 C 175.534 361.818,190.462 364.142,190.830 363.774 C 192.622 361.983,195.966 319.736,196.835 287.899 C 197.263 272.253,196.405 273.095,212.062 272.947 C 240.971 272.674,270.503 264.930,287.549 253.154 C 290.507 251.110,290.411 251.153,289.904 252.102 M289.397 266.537 L 288.911 276.459 287.743 276.324 C 287.101 276.250,286.529 276.145,286.472 276.091 C 286.415 276.037,286.578 271.315,286.834 265.598 L 287.300 255.204 288.494 254.196 L 289.689 253.188 289.786 254.901 C 289.840 255.844,289.665 261.080,289.397 266.537 M286.324 264.786 C 286.124 269.708,285.878 274.277,285.776 274.939 L 285.591 276.142 278.609 276.395 C 238.530 277.847,207.829 289.996,202.251 306.610 L 201.531 308.755 201.732 305.058 C 201.842 303.025,202.047 295.846,202.186 289.105 C 202.326 282.364,202.598 276.542,202.790 276.167 C 203.108 275.548,203.963 275.486,212.173 275.486 C 238.301 275.485,267.404 268.070,284.431 257.075 C 287.028 255.398,286.751 254.267,286.324 264.786 M286.089 276.935 C 285.394 277.021,284.256 277.021,283.560 276.935 C 282.865 276.849,283.434 276.778,284.825 276.778 C 286.216 276.778,286.785 276.849,286.089 276.935 M275.000 277.311 C 274.625 277.409,274.013 277.409,273.638 277.311 C 273.264 277.213,273.570 277.133,274.319 277.133 C 275.068 277.133,275.375 277.213,275.000 277.311 M289.105 277.821 C 289.105 278.044,290.307 278.212,291.926 278.214 C 294.739 278.217,301.595 278.665,309.331 279.351 C 311.574 279.550,313.588 279.565,313.806 279.384 C 314.283 278.988,324.649 280.457,331.712 281.921 C 346.508 284.989,360.527 289.992,369.823 295.521 C 372.143 296.902,374.236 297.921,374.472 297.786 C 374.709 297.651,374.773 297.684,374.614 297.859 C 374.292 298.214,374.989 299.222,375.557 299.222 C 375.757 299.222,375.795 299.003,375.642 298.735 C 375.479 298.453,375.510 298.385,375.716 298.573 C 375.911 298.752,376.041 299.014,376.006 299.157 C 375.913 299.531,376.685 300.389,377.113 300.389 C 377.314 300.389,377.343 300.170,377.178 299.903 C 376.572 298.920,380.115 301.998,382.339 304.385 C 386.951 309.337,388.494 312.697,388.918 318.715 L 389.176 322.374 387.711 325.275 C 384.441 331.754,376.798 337.578,365.537 342.173 C 360.530 344.216,350.782 347.228,350.087 346.947 C 349.819 346.838,349.914 346.741,350.304 346.723 C 356.821 346.435,375.325 337.344,381.265 331.513 C 390.791 322.161,389.566 308.843,378.468 301.091 C 377.791 300.618,378.759 301.840,380.618 303.807 C 408.318 333.105,344.402 359.712,271.595 349.191 C 241.239 344.804,215.818 333.788,207.638 321.475 C 193.335 299.945,224.810 280.366,278.016 277.696 C 283.972 277.397,289.105 277.455,289.105 277.821 M275.875 280.771 C 275.126 280.855,272.325 281.118,269.650 281.356 C 230.997 284.794,205.983 301.036,213.728 317.666 C 214.316 318.929,214.885 319.875,214.992 319.768 C 215.099 319.661,214.702 318.540,214.111 317.277 C 207.403 302.955,226.434 288.466,258.755 283.288 C 314.131 274.417,378.405 292.685,378.405 317.295 C 378.405 322.466,375.468 328.852,375.000 324.699 C 374.169 317.327,364.656 308.656,350.964 302.790 C 302.950 282.221,222.708 291.286,215.779 318.062 L 215.183 320.365 216.241 321.759 C 236.369 348.282,320.198 357.414,361.284 337.560 C 396.434 320.574,377.019 293.028,323.152 283.457 C 310.701 281.245,284.808 279.774,275.875 280.771 M239.105 282.879 C 238.677 283.063,238.064 283.214,237.743 283.214 C 237.375 283.214,237.447 283.090,237.938 282.879 C 238.366 282.695,238.979 282.545,239.300 282.545 C 239.668 282.545,239.596 282.669,239.105 282.879 M232.490 284.961 C 214.845 291.202,204.853 299.872,203.289 310.296 C 202.837 313.315,202.049 312.490,202.384 309.349 C 203.178 301.924,209.760 294.873,221.206 289.186 C 225.746 286.930,235.141 283.344,236.576 283.320 C 236.897 283.315,235.058 284.053,232.490 284.961 M296.187 292.223 C 328.996 293.756,356.565 302.255,368.724 314.583 C 373.688 319.616,376.011 326.029,373.732 328.408 C 372.592 329.599,371.984 329.611,371.984 328.444 C 371.984 323.590,362.362 314.628,351.716 309.568 C 307.812 288.699,227.239 296.065,218.584 321.740 L 218.011 323.441 216.938 322.034 C 216.015 320.825,215.899 320.394,216.113 318.968 C 218.181 305.175,244.440 293.960,278.648 292.262 C 287.763 291.809,287.363 291.810,296.187 292.223 M302.959 298.447 C 339.114 301.278,368.261 314.144,371.535 328.720 C 372.642 333.643,352.501 342.339,332.629 345.517 L 327.396 346.354 322.908 344.994 C 306.180 339.923,281.028 338.982,264.683 342.814 L 261.466 343.568 256.132 342.201 C 245.119 339.378,233.322 334.847,234.531 333.903 C 237.452 331.623,248.057 327.620,255.703 325.910 C 289.668 318.317,332.224 323.813,354.572 338.677 C 355.161 339.069,355.642 339.288,355.642 339.164 C 355.642 338.141,345.079 332.511,338.770 330.172 C 307.272 318.492,258.076 319.607,236.087 332.497 L 233.278 334.144 231.133 332.959 C 222.969 328.448,218.430 324.591,218.822 322.498 C 220.835 311.773,243.182 301.383,269.650 298.867 C 272.111 298.633,274.737 298.382,275.486 298.310 C 278.783 297.993,298.403 298.091,302.959 298.447 M38.920 312.635 C 38.639 312.973,38.500 313.993,38.580 315.131 C 38.686 316.637,38.610 316.968,38.230 316.651 C 37.726 316.233,37.545 312.779,38.003 312.322 C 38.576 311.748,39.418 312.035,38.920 312.635 M206.252 320.461 C 209.344 325.669,216.515 331.613,225.079 336.065 C 227.657 337.405,229.622 338.506,229.445 338.512 C 228.803 338.531,219.969 333.841,217.315 332.071 C 211.890 328.453,205.095 322.179,206.602 322.179 C 206.848 322.179,206.942 322.004,206.809 321.790 C 206.677 321.576,206.161 321.401,205.663 321.401 C 204.051 321.401,201.168 313.047,202.680 312.756 C 203.155 312.664,203.503 313.311,204.112 315.423 C 204.555 316.957,205.518 319.224,206.252 320.461 M40.436 313.776 C 41.245 314.750,41.680 316.851,41.143 317.192 C 39.792 318.050,38.732 316.553,39.163 314.397 C 39.421 313.111,39.750 312.950,40.436 313.776 M204.104 320.938 C 204.507 321.620,204.949 322.179,205.085 322.179 C 205.222 322.179,207.066 323.908,209.184 326.020 C 245.073 361.820,368.804 361.504,388.177 325.564 C 389.096 323.858,389.479 323.411,389.485 324.038 C 389.526 328.119,391.632 344.259,393.803 357.125 C 395.483 367.082,395.498 368.339,393.976 371.790 C 383.786 394.905,315.424 408.979,255.957 400.206 C 226.155 395.809,204.565 386.188,198.937 374.796 C 197.032 370.940,196.997 365.973,198.779 352.335 C 199.793 344.579,200.614 335.749,201.167 326.654 C 201.401 322.802,201.689 318.862,201.808 317.899 L 202.023 316.148 202.697 317.922 C 203.067 318.898,203.701 320.255,204.104 320.938 M299.611 341.257 C 307.955 341.991,317.341 343.724,323.330 345.635 L 325.875 346.447 323.636 346.750 C 309.110 348.721,286.668 347.968,268.894 344.914 C 262.353 343.790,262.353 343.790,265.018 343.219 C 274.922 341.095,288.820 340.307,299.611 341.257 M315.856 352.019 C 315.482 352.117,314.869 352.117,314.494 352.019 C 314.120 351.921,314.426 351.841,315.175 351.841 C 315.924 351.841,316.231 351.921,315.856 352.019 " stroke="none" fill="#000000" fill-rule="evenodd"></path></g></svg>